<svg class="tab" width="600" height="280" viewBox="0 0 600 280" fill="none" xmlns="http://www.w3.org/2000/svg"><g clip-path="url(#clip0)"><path d="M531.028 280l3.361-26.57 21.806 14.907L542.215 280h.788l13.77-11.489.255-.214-23.033-15.744L530.519 280h.509z" fill="#E5E5E6"/><path d="M518.598 280l-24.01-23.815 39.317-2.92L530.519 280h.508l3.457-27.283-40.484 3.01-.549.039L517.885 280h.713z" fill="#E5E5E6"/><path d="M477.531 271.585l-.174-.184-.245-.005.698-39.016 16.549 23.626-16.828 15.579zm.748-37.646l-.658 36.879 16.07-14.877-15.412-22.002z" fill="#E5E5E6"/><path d="M477.397 271.724l-.175-.104-37.766-24.812 38.848-14.005-.688 38.707-.219.214zm-36.828-24.786l36.553 24.004.669-37.426-37.222 13.422z" fill="#E5E5E6"/><path d="M399.706 255.219l-.17-.643-6.813-25.808 48.215 18.18-40.993 7.787-.239.484zm-6.25-25.639l6.504 24.642 39.127-7.428-45.631-17.214z" fill="#E5E5E6"/><path d="M399.706 255.223l-.17-.653-15.406-47.884.473-.169 8.719 22.569 6.718 25.44-.04.104-.294.593zm-12.434-40.411l9.85 30.636-4.279-16.212-5.571-14.424z" fill="#E5E5E6"/><path d="M316.474 248.737l-.344-.354 36.234-53.992 32.574 12.166-.439.269-68.025 41.911zm36.085-53.739l-35.372 52.707 66.614-41.043-31.242-11.664z" fill="#E5E5E6"/><path d="M316.309 249.015l-25.501-49.538.374-.035 61.776-5.046-.29.433-36.359 54.186zm-24.708-49.099l24.763 48.113 35.601-53.046-60.364 4.933z" fill="#E5E5E6"/><path d="M268.878 238.693l-.245-.09-.239-.12.135-.234.005-.01 26.269-53.947.469.169-3.855 15.361-22.439 38.647-.1.224zm25.332-52.02l-22.205 45.598 18.968-32.674 3.237-12.924z" fill="#E5E5E6"/><path d="M268.868 238.717l-.314-.154-.035-.09-20.135-50.629.339-.03 46.728-3.697-26.583 54.6zm-19.766-50.43l19.671 49.474 25.846-53.071-45.517 3.597z" fill="#E5E5E6"/><path d="M207.072 222.998l.195-.533h-.334l.484-.403 16.079-44.068.24.09 25.501 9.894-41.397 34.383-.034.104h-.085l-.649.533zm16.719-44.346l-15.611 42.777 40.074-33.286-24.463-9.491z" fill="#E5E5E6"/><path d="M207.801 222.47h-.33l-.07-.129-33.271-61.486 49.835 17.319-.085.239-16.079 44.057zm-32.609-60.718l32.394 59.861 15.741-43.13-48.135-16.731z" fill="#E5E5E6"/><path d="M116.554 204.38l11.237-60.838.279.11 47.107 17.582-.374.279-58.249 42.867zm11.626-60.155l-10.903 58.999 56.863-41.85-45.96-17.149z" fill="#E5E5E6"/><path d="M117.162 203.847l-.494-.015-6.399-58.182 18.025-2.053-11.132 60.25zm-6.339-57.759l6.154 55.99 10.704-57.908-16.858 1.918z" fill="#E5E5E6"/><path d="M50.244 178.871l-.015-.035-.294-.343 31.157-39.544 30.165 6.825-61.003 33.097-.02-.03.01.03zm31.043-39.364l-30.205 38.338 58.758-31.876-28.553-6.462z" fill="#E5E5E6"/><path d="M49.975 179.006l-.085-.294-12.404-43.221.36.03 43.83 3.493-31.437 39.857-.264.135zm-11.806-42.952l12.065 42.05 30.47-38.662-42.534-3.388z" fill="#E5E5E6"/><path d="M.08 134.26v.503l36.818 1.231-36.125 19.61-.693-11.105v8.006l.22 3.523.254-.01.114.214 38.095-20.681L.08 134.26z" fill="#E5E5E6"/><path d="M.08 144.499v8.006l.184 2.965-.184-.145v.638l.753.588-.753-12.052zm599.586 105.892l-42.314 17.348 34.01-45.523 8.304 4.549v-.573l-8.444-4.629-34.813 46.604-.539.722 43.796-17.96v-.538z" fill="#E5E5E6"/><path d="M556.494 268.89l-.06-.235-.559.225.464-.623-12.628-52.353 48.04 5.789-.26.344-34.608 46.329.025.1-.14.055-.274.369zm.239-1.151l34.1-45.647-46.464-5.6 12.364 51.247z" fill="#E5E5E6"/><path d="M557.012 268.889l-23.102-15.793 9.89-36.968.489.005 12.723 52.756zm-22.528-16.002l21.73 14.857-12.189-50.525-9.541 35.668z" fill="#E5E5E6"/><path d="M493.935 256.369l-.219-.448.139-.13 29.182-27.078 20.873-12.73.29.409-50.265 39.977zm29.377-27.243l-24.325 22.58 41.741-33.192-17.416 10.612z" fill="#E5E5E6"/><path d="M493.227 256.285l51.252-40.76-10.09 37.701-41.162 3.059zm50.374-39.419l-48.783 38.806L534 252.757l9.601-35.891z" fill="#E5E5E6"/><path d="M493.935 256.399l-.139-.319-22.928-50.574 52.748 23.342-.279.259-29.402 27.292zm-22.065-49.902l22.235 49.06 28.608-26.555-50.843-22.505z" fill="#E5E5E6"/><path d="M493.815 256.12l-16.005-22.853-6.688-27.203.474-.165 22.653 49.977-.434.244zm-15.541-23.063l14.404 20.567-20.419-45.049 6.015 24.482z" fill="#E5E5E6"/><path d="M440.085 247.187l-.389-.194.09-.214 18.823-46.42 13.157 5.536-31.681 41.292zm18.793-46.165l-17.94 44.232 30.035-39.15-12.095-5.082z" fill="#E5E5E6"/><path d="M439.292 247.396l32.189-41.965 6.858 27.886-.209.079-38.838 14zm31.955-40.829l-30.519 39.773 37.013-13.342-6.494-26.431z" fill="#E5E5E6"/><path d="M439.995 247.571l-.185-.523-.114-.06.05-.13-19.502-54.674 38.853 8.32-18.808 46.369.18.499-.319-.155-.155.354zm-18.978-54.71l19.013 53.3 18.369-45.288-37.382-8.012z" fill="#E5E5E6"/><path d="M440.429 247.297l-.509-.195-47.232-17.816 28.02-37.287 19.721 55.298zm-46.938-18.24l46.105 17.393-19.047-53.4-27.058 36.007z" fill="#E5E5E6"/><path d="M384.274 206.916l-5.611-8.953 41.936-5.69.119.489-36.444 14.154zm-4.773-8.559l4.973 7.946 34.09-13.242-39.063 5.296z" fill="#E5E5E6"/><path d="M393.022 229.685l-8.972-23.218 37.306-14.498-28.334 37.716zm-8.324-22.934l8.464 21.912 26.733-35.583-35.197 13.671z" fill="#E5E5E6"/><path d="M384.19 206.781h-.005l-40.3-43.3.359-.349 35.028 34.866.02.025 5.282 8.445-.384.313zm-30.978-34.013l29.551 31.747-3.875-6.193-25.676-25.554z" fill="#E5E5E6"/><path d="M384.289 206.841l-32.035-11.962-.035-.12-8.394-31.383.424-.239 40.305 43.296-.265.408zM352.673 194.5l30.788 11.504-38.888-41.786 8.1 30.282z" fill="#E5E5E6"/><path d="M291.347 199.901l-.364-.329 25.406-47.037 28.22 10.707-53.262 36.659zm25.272-46.738L291.92 198.9l51.611-35.524-26.912-10.213z" fill="#E5E5E6"/><path d="M290.289 200.026l53.931-37.123.094.344 8.474 31.672-62.499 5.107zm53.631-36.306l-51.795 35.653 60.015-4.902-8.22-30.751z" fill="#E5E5E6"/><path d="M291.107 200.404l-11.496-50.848.339.03 36.958 3.044-.185.338-25.616 47.436zm-10.858-50.295l11.053 48.88 24.798-45.921-35.851-2.959z" fill="#E5E5E6"/><path d="M291.446 199.757l-.483-.005-11.277-49.862.473-.155 15.138 34.652-3.851 15.37zm-10.688-47.406l10.464 46.26 3.551-14.19-14.015-32.07z" fill="#E5E5E6"/><path d="M248.464 188.801l.02-.488h-.27l.285-.349 1.765-43.251.28.045 29.855 4.893-31.406 38.497-.005.16h-.12l-.404.493zm2.279-43.49l-1.716 42.01 30.434-37.312-28.718-4.698z" fill="#E5E5E6"/><path d="M248.175 188.357l31.82-39.005 15.412 35.269-.355.03-46.877 3.706zm31.69-38.049l-30.553 37.456 45.356-3.587-14.803-33.869z" fill="#E5E5E6"/><path d="M248.983 188.318h-.36l-23.725-28.489 25.87-15.26-1.785 43.749zm-23.317-28.359l22.858 27.447 1.71-41.935-24.568 14.488z" fill="#E5E5E6"/><path d="M249.556 188.646l-26.18-10.153 1.711-19.232 24.469 29.385zm-25.646-10.487l24.02 9.321-22.449-26.953-1.571 17.632z" fill="#E5E5E6"/><path d="M174.509 161.558l-.12-.249 15.975-40.416 35.476 39.235-51.331 1.43zm16.02-39.728l-15.497 39.215 49.696-1.39-34.199-37.825z" fill="#E5E5E6"/><path d="M223.865 178.667l-.304-.105-48.978-17.019.075-.488 50.903-1.42-1.696 19.032zm-47.825-17.149l47.381 16.466 1.586-17.831-48.967 1.365z" fill="#E5E5E6"/><path d="M174.444 161.429l-30.978-53.838 47.312 13.606-15.885 40.197-.225-.09-.224.125zm-29.925-53.011l30.099 52.313 15.492-39.2-45.591-13.113z" fill="#E5E5E6"/><path d="M175.227 161.782l-47.576-17.761 16.314-36.57 31.262 54.331zm-46.903-18.04l45.771 17.084-30.075-52.269-15.696 35.185z" fill="#E5E5E6"/><path d="M110.618 146.188l-.209-.11-.24-.159.19-.215.005-.005 15.795-20.671 17.656-17.203.364.348-33.426 37.835-.135.18zm28.758-33.341l-12.842 12.51-11.487 15.031 24.329-27.541z" fill="#E5E5E6"/><path d="M109.925 146.188l33.88-38.348.414.269-16.064 36.011-18.23 2.068zm33.172-36.794l-31.93 36.146 16.653-1.898 15.277-34.248z" fill="#E5E5E6"/><path d="M110.603 146.208l-.194-.13-21.073-17.697 37.572-3.502-16.305 21.329zm-20.025-17.443l19.931 16.74 15.301-20.023-35.232 3.283z" fill="#E5E5E6"/><path d="M110.489 146.108l-29.75-6.726 9.186-11.165 20.783 17.457-.219.434zm-28.848-7.04l27.95 6.322-19.606-16.466-8.344 10.144z" fill="#E5E5E6"/><path d="M37.66 136.054l-.09-.274L50.41 86.7l40.075 42.055-52.823 7.299zm12.998-48.352L38.164 135.48l51.272-7.09L50.658 87.7z" fill="#E5E5E6"/><path d="M81.302 139.487l-43.492-3.458-.015-.503 52.764-7.294-9.257 11.255zm-41.147-3.777l40.927 3.254 8.275-10.054-49.202 6.8z" fill="#E5E5E6"/><path d="M37.596 135.865l-14.38-39.394 27.676-9.66L38.07 135.84l-.235-.065-.24.09zm-13.731-39.09l13.93 38.158 12.38-47.34-26.31 9.181z" fill="#E5E5E6"/><path d="M.08 133.578l23.396-36.395 13.995 38.328-37.391-1.25v.503l38.114 1.275-14.593-39.977L.08 132.646v.932z" fill="#E5E5E6"/><path d="M.08 86.167v.548l22.883 9.93L.08 108.687v.568L24.12 96.6.08 86.167z" fill="#E5E5E6"/><path d="M.08 108.687v.568l22.733-11.968L.08 132.646v.932l24.184-37.621L.08 108.687zm543.895 107.934l-.194-.388 6.573-31.288 30.793-5.446-37.172 37.122zm6.798-31.238l-6.314 30.043 35.202-35.155-28.888 5.112z" fill="#E5E5E6"/><path d="M591.626 222.182l-.364-.045-47.761-5.75 37.038-36.988 11.087 42.783zm-47.042-6.173l46.374 5.585-10.684-41.223-35.69 35.638z" fill="#E5E5E6"/><path d="M543.825 216.327l-31.74-51.889 38.763 20.591-.04.184-6.524 31.034-.224-.049-.235.129zm-30.354-50.584l30.454 49.787 6.354-30.232-36.808-19.555z" fill="#E5E5E6"/><path d="M522.977 229.331l-10.444-64.201.459-.174 31.392 51.326-21.407 13.049zm-9.745-63.02l10.119 62.203 20.345-12.406-30.464-49.797z" fill="#E5E5E6"/><path d="M471.082 206.632l.02-.379h-.349l.369-.358 2.634-51.85.299.085 39.212 10.836-41.656 41.148-.005.139h-.135l-.389.379zm3.142-51.934l-2.578 50.669 40.648-40.147-38.07-10.522z" fill="#E5E5E6"/><path d="M523.486 229.341l-.424-.184-52.135-23.078 42.02-41.507.08.479 10.459 64.29zm-51.681-23.421l51.033 22.589-10.23-62.895-40.803 40.306z" fill="#E5E5E6"/><path d="M471.606 206.254h-.389l-.075-.13-23.94-44.805 27.052-7.279-2.648 52.214zm-23.661-44.616l23.217 43.45 2.564-50.385-25.781 6.935z" fill="#E5E5E6"/><path d="M471.92 206.508l-13.386-5.63-.03-.115-11.167-39.215.463-.184 24.12 45.144zm-12.968-6.004l11.856 4.992-22.354-41.835 10.498 36.843z" fill="#E5E5E6"/><path d="M420.449 193.115l-6.26-51.914 33.771 20.212-27.511 31.702zm-5.641-50.953l6 49.772 26.379-30.391-32.379-19.381z" fill="#E5E5E6"/><path d="M459.097 201.022l-38.937-8.345 27.531-31.712 11.406 40.057zm-38-8.654l37.287 7.991-10.928-38.363-26.359 30.372z" fill="#E5E5E6"/><path d="M420.967 193.235l-48.284-49.952 42.035-1.863 6.249 51.815zm-47.152-49.498l46.474 48.078-6.01-49.872-40.464 1.794z" fill="#E5E5E6"/><path d="M378.863 198.446l-5.941-55.636 48.23 49.897-.489.065-41.8 5.674zm-5.287-54.236l5.726 53.663 40.798-5.53-46.524-48.133z" fill="#E5E5E6"/><path d="M344.185 163.536l-.045-.085-.29-.269 17.003-29.485 12.823 9.82-29.466 19.999-.075-.07.05.09zm16.818-29.091l-16.17 28.044 27.99-18.992-11.82-9.052z" fill="#E5E5E6"/><path d="M379.402 198.835l-35.726-35.558 29.78-20.208 5.946 55.766zm-34.943-35.484l34.299 34.129-5.716-53.524-28.583 19.395z" fill="#E5E5E6"/><path d="M344.025 163.611l-.135-.115-36.359-33.998 53.806 4.359-.2.349-16.898 29.3-.214.105zm-35.097-33.501l35.077 32.803 16.509-28.623-51.586-4.18z" fill="#E5E5E6"/><path d="M343.98 163.551l-27.671-10.508L308 129.891l.409-.269 35.83 33.51-.259.419zm-27.277-10.896l26.259 9.969-34.139-31.926 7.88 21.957z" fill="#E5E5E6"/><path d="M279.96 150.119l-.279-.12-.08-20.063 29.441-.394-29.082 20.577zm.145-19.69l.074 18.922 27.252-19.286-27.326.364z" fill="#E5E5E6"/><path d="M316.873 153.133l-37.646-3.104 29.132-20.621 8.514 23.725zm-36.235-3.498l35.497 2.93-8.025-22.37-27.472 19.44z" fill="#E5E5E6"/><path d="M280.184 150.711l-.423-.677-.08-.035v-.1l-13.711-21.877 14.135 1.934.079 19.799.399.638-.399-.18v.498zm-13.222-22.041l12.714 20.283-.075-18.549-12.639-1.734z" fill="#E5E5E6"/><path d="M280.439 150.169l-30.449-4.988 16.519-17.243 13.93 22.231zm-29.427-5.326l28.414 4.653-13.002-20.746-15.412 16.093z" fill="#E5E5E6"/><path d="M225.436 160.093l-.184-.214-.2-.075 13.756-38.163 28.239 6.581-41.611 31.871zm13.686-37.859l-13.312 36.938 40.08-30.701-26.768-6.237z" fill="#E5E5E6"/><path d="M225.411 160.108l-.279-.414 41.182-31.547.329.374-16.015 16.71-25.217 14.877zm38.614-29.575l-35.287 27.029 21.606-12.75 13.681-14.279z" fill="#E5E5E6"/><path d="M225.257 160.273l-.175-.23-32.783-43.664 47.008 5.346-13.846 38.348-.204.2zm-31.861-43.266l31.806 42.364 13.416-37.222-45.222-5.142z" fill="#E5E5E6"/><path d="M225.097 160.063l-34.952-38.662 2.663-5.181 32.673 43.519-.384.324zm-34.349-38.741l31.028 34.322-28.888-38.478-2.14 4.156z" fill="#E5E5E6"/><path d="M192.803 116.942l-48.738-8.669-.289.259-.035-.508-1.427-21.369 50.659 29.824-.17.463zm-48.574-9.152l47.287 8.415-48.638-28.633 1.351 20.218z" fill="#E5E5E6"/><path d="M190.574 121.66l-46.649-13.422.11-.488 49.192 8.754-2.653 5.156zm-41.871-12.565l41.616 11.972 2.15-4.185-43.766-7.787z" fill="#E5E5E6"/><path d="M144.289 108.692l-.314-.339-.2.175-.03-.424-23.266-25.285 22.349 4.076 1.401 20.995.11.124-.1.09.05.588zm-22.424-25.105l21.826 23.72-1.332-19.984-20.494-3.736z" fill="#E5E5E6"/><path d="M126.174 125.711l-5.341-43.25 23.516 25.548-18.175 17.702zm-4.653-41.76l5.027 40.694 17.098-16.656-22.125-24.039z" fill="#E5E5E6"/><path d="M90.164 128.715l-.279-.13-.17.04-9.97-42.702.295-.02 41.646-2.99-31.522 45.802zm-9.8-42.329l9.706 41.577 30.603-44.471-40.31 2.894z" fill="#E5E5E6"/><path d="M89.446 128.874l31.896-46.354 5.296 42.887-37.192 3.467zm31.561-44.984l-30.538 44.382 35.611-3.324-5.073-41.058z" fill="#E5E5E6"/><path d="M90.2 128.63h-.484L73.192 58.282l.489-.115 6.618 27.93 9.915 42.479-.015.054z" fill="#E5E5E6"/><path d="M90.414 129.413l-40.21-42.2L73.561 57.66l16.853 71.754zM50.868 87.189L89.5 127.734 73.307 58.785 50.867 87.19z" fill="#E5E5E6"/><path d="M23.157 97.228l4.324-20.956.125-.05 45.736-18.234.244.433-50.429 38.807zM27.92 76.64l-3.995 19.366 47.93-36.883L27.92 76.64z" fill="#E5E5E6"/><path d="M23.62 96.859l-.234-.439 49.895-38.398.35.354-22.948 29.036-27.062 9.447zm48.36-37.202l-47.058 36.21 25.457-8.883 21.6-27.327z" fill="#E5E5E6"/><path d="M.08 62.093v.563l27.336 13.94-4.02 19.49L.08 70.529v.742l23.262 25.504.334.424 4.309-20.876L.08 62.093z" fill="#E5E5E6"/><path d="M.08 70.528v.742l22.484 24.652L.08 86.167v.548l23.356 10.134.29-.399L.08 70.528zm599.586 102.105l-19.072 6.916-3.148-16.77 22.22-.249v-.504l-22.823.254 3.366 17.941 19.457-7.049v-.539z" fill="#E5E5E6"/><path d="M580.738 180.331l-35.91-17.577.114-.474h32.409l3.387 18.051zm-34.713-17.548l34.035 16.656-3.128-16.656h-30.907z" fill="#E5E5E6"/><path d="M550.374 185.447l-.055-.224-5.75-23.157 36.633 17.931-30.828 5.45zm-5.057-22.454l5.436 21.881 28.848-5.101-34.284-16.78z" fill="#E5E5E6"/><path d="M511.835 165.419l.759-.508 14.144-25.076 18.704 22.904-33.607 2.68zm14.983-24.692l-13.586 24.079 31.212-2.486-17.626-21.593z" fill="#E5E5E6"/><path d="M550.943 185.647L511.9 164.911l33.232-2.645 5.811 23.381zm-37.287-20.372l36.529 19.401-5.437-21.877-31.092 2.476z" fill="#E5E5E6"/><path d="M512.653 165.479l-.109-.304-13.995-40.012 28.578 15.016-14.154 25.086-.32.214zm-13.217-39.275l13.392 38.289 13.601-24.104-26.993-14.185z" fill="#E5E5E6"/><path d="M513.172 165.464l-39.636-10.956 25.551-29.315 14.085 40.271zm-38.733-11.23l37.94 10.488-13.486-38.553-24.454 28.065z" fill="#E5E5E6"/><path d="M447.566 161.777l-.434-.294.304-.209 51.417-35.797.299.403-28.18 22.236-23.406 13.661zm44.693-31.104l-39.401 27.432 17.825-10.403 21.576-17.029z" fill="#E5E5E6"/><path d="M447.636 161.722l-.205-.448 51.417-35.797.334.373-25.052 28.748-.075.02-26.419 7.104zm49.83-34.671l-48.563 33.809 24.947-6.711 23.616-27.098z" fill="#E5E5E6"/><path d="M447.566 161.777l-.244-.164.005-.14 1.097-37.576 22.788 24.084-23.646 13.796zm1.327-36.659l-1.052 35.917 22.573-13.168-21.521-22.749z" fill="#E5E5E6"/><path d="M447.815 161.912l-33.835-20.248 34.943-17.572-1.108 37.82zm-32.798-20.213l32.32 19.346 1.057-36.126-33.377 16.78z" fill="#E5E5E6"/><path d="M372.783 143.891l.229-.468 8.175-37.641.254.07 68.205 18.658-76.863 19.381zm8.778-37.481l-7.98 36.759 74.085-18.674-66.105-18.085z" fill="#E5E5E6"/><path d="M373.262 143.767l-.075-.499 75.407-19.007.174.469-34.204 17.203h-.055l-41.247 1.834zm73.237-18.46l-70.793 17.847 38.723-1.719 32.07-16.128z" fill="#E5E5E6"/><path d="M373.217 144.14l-.199-.543-13.247-35.787 21.925-1.998-.075.334-8.13 37.446-.274.548zm-12.748-35.887l12.718 34.363 7.87-36.241-20.588 1.878z" fill="#E5E5E6"/><path d="M373.785 144.235l-13.107-10.039-.005-.12-.803-26.037.484-.095 13.431 36.291zm-12.613-10.289l11.541 8.839-12.294-33.221.753 24.382z" fill="#E5E5E6"/><path d="M308.224 130.08l-.563-.279 29.112-14.144 23.267-7.857.175.473-51.991 21.807zm45.337-19.565l-16.598 5.605-20.459 9.945 37.057-15.55z" fill="#E5E5E6"/><path d="M361.187 134.345l-52.973-4.29-.079-.483 52.219-21.912.833 26.685zm-51.9-4.708l51.386 4.165-.788-25.39-50.598 21.225z" fill="#E5E5E6"/><path d="M308.668 130.295l-.434-.215-.139.07-.06-.169-.364-.185.264-.124-13.317-39.992 42.798 26.221-28.863 14.03.115.364zm-13.147-39.464l12.858 38.622 27.98-13.597-40.838-25.025z" fill="#E5E5E6"/><path d="M279.486 130.434l15.596-40.929 13.502 40.541-29.098.388zm15.566-39.429l-14.833 38.921 27.671-.364-12.838-38.557z" fill="#E5E5E6"/><path d="M266.593 128.595h-.428l6.553-36.185 22.893-2.471-29.018 38.656zm6.554-35.722l-6.244 34.482 27.621-36.784-21.377 2.302z" fill="#E5E5E6"/><path d="M280.015 130.459l-14.005-1.918 28.853-38.433.434.24-15.282 40.111zm-13.092-2.307l12.768 1.749 14.508-38.074-27.276 36.325z" fill="#E5E5E6"/><path d="M266.603 128.994l-.264-.393h-.17l.035-.199-44.419-65.467.335-.358 51.092 29.938-6.479 35.772.21.309h-.265l-.075.398zm-43.78-65.42l43.506 64.125 6.324-34.925-49.83-29.2z" fill="#E5E5E6"/><path d="M267.037 128.735l-28.274-6.586-17.012-59.288.448-.21 44.838 66.084zm-27.87-7.01l26.733 6.233-43.232-63.722 16.499 57.489z" fill="#E5E5E6"/><path d="M193.022 116.872l-.259-.194-.155-.065.025.01-.02-.01 18.664-54.879 11.122.842-29.377 54.296zm18.599-54.61l-17.581 51.691 27.541-50.933-9.96-.758z" fill="#E5E5E6"/><path d="M239.307 122.228l-46.858-5.326 29.616-54.77 17.242 60.096zm-46.065-5.744l45.377 5.161-16.699-58.192-28.678 53.031z" fill="#E5E5E6"/><path d="M192.808 117.087l-.17-.25-38.982-58.007 58.139 2.94-18.728 55.067-.259.25zm-38.18-57.71l38.145 56.758 18.329-53.903-56.474-2.854z" fill="#E5E5E6"/><path d="M192.718 116.907l-50.439-29.694 11.806-28.642.264.388 38.703 57.595-.334.353zm-49.805-29.903l49.107 28.912-37.826-56.284-11.281 27.372z" fill="#E5E5E6"/><path d="M121.322 83.407l-.21-.234-.164-.07 19.162-44.421 14.384 20.476-33.172 24.249zm18.887-43.699L121.765 82.46l32.025-23.41-13.581-19.341z" fill="#E5E5E6"/><path d="M142.753 87.393l-22.2-4.046 34.16-24.975-11.96 29.02zm-20.958-4.33l20.649 3.762 11.127-26.994-31.776 23.232z" fill="#E5E5E6"/><path d="M121.082 83.686l-.144-.394-11.422-31.587.225-.09 30.897-12.893-19.272 44.645-.284.32zM110.15 51.99l11.042 30.541 18.489-42.862L110.15 51.99z" fill="#E5E5E6"/><path d="M79.466 86.451l30.454-35.095 11.601 32.076-42.055 3.02zm30.274-34.118l-29.097 33.53 40.185-2.885-11.088-30.645z" fill="#E5E5E6"/><path d="M73.337 58.496l-.09-.104L56.723 39.27l53.167 12.336-.015.493-36.538 6.397zM58.105 40.102L73.53 57.953l35.042-6.138-50.468-11.713z" fill="#E5E5E6"/><path d="M79.925 86.69l-6.793-28.672 37.357-6.542L79.925 86.69zm-6.184-28.269l6.444 27.203 28.992-33.406-35.436 6.203z" fill="#E5E5E6"/><path d="M74.26 58.79L15.605 37.292l.105-.483 41.83 2.63L74.259 58.79zM17.4 37.416l55.212 20.238-15.316-17.727-39.896-2.51z" fill="#E5E5E6"/><path d="M27.541 76.79l-.08-.259-12.16-39.882 58.834 21.563L27.54 76.79zM16.08 37.467l11.786 38.657 44.872-17.891L16.08 37.466z" fill="#E5E5E6"/><path d="M.08 35.284v.508l14.823 1.445L.08 46.041v.583l16.399-9.74-16.4-1.6z" fill="#E5E5E6"/><path d="M.08 46.623l15.461-9.187 11.746 38.532L.08 62.093v.563L28.115 76.95l-12.28-40.271L.08 46.04v.583zm599.586 76.058l-.105-.114-55.008 39.937.35.339 40.449-22.868.039-.025 14.28-16.745v-.524h-.005zm-14.599 16.875l-36.409 20.587 49.492-35.932-13.083 15.345z" fill="#E5E5E6"/><path d="M599.666 122.657l-.105-.095-55.391 40.221h33.122l22.379-39.439v-.687h-.005zm-22.668 39.623l-31.282-.005 53.202-38.627-21.92 38.632z" fill="#E5E5E6"/><path d="M544.903 162.843l-.235-.234.03-.129 11.103-49.937 29.855 27.263-.304.169-40.449 22.868zm11.197-49.348l-10.788 48.541 39.496-22.335-28.708-26.206z" fill="#E5E5E6"/><path d="M545.077 163.092l-18.638-22.828 29.93-27.98-11.292 50.808zm-17.955-22.788l17.686 21.667 10.718-48.218-28.404 26.551z" fill="#E5E5E6"/><path d="M526.818 140.588l-28.544-14.997 58.519-13.013-29.975 28.01zm-27.102-14.808l27.017 14.195 28.369-26.516-55.386 12.321z" fill="#E5E5E6"/><path d="M470.339 148.609l15.836-52.826 13.127 29.978-.15.119-28.813 22.729zm15.925-51.377l-14.982 49.997 27.406-21.623-12.424-28.373z" fill="#E5E5E6"/><path d="M448.279 125.233l.125-.763 4.249-32.19 34.22 4.056-38.07 28.368-.524.529zm4.808-32.4l-4.105 31.119 36.584-27.267-32.479-3.852z" fill="#E5E5E6"/><path d="M470.923 148.405l-22.644-23.935 38.399-28.617-15.755 52.552zm-21.891-23.87l21.661 22.898 15.073-50.27-36.734 27.372z" fill="#E5E5E6"/><path d="M448.309 125.203l.085-.638-28.863-42.608 33.621 10.418-.03.21-4.204 31.85.064.095-.089.085-.075.568-.2-.294-.309.314zm-27.556-42.34l27.746 40.955 4.099-31.08-31.845-9.874z" fill="#E5E5E6"/><path d="M449.247 124.924l-68.504-18.738 39.471-24.114 29.033 42.852zM382 106.006l66.07 18.076-28-41.333L382 106.006z" fill="#E5E5E6"/><path d="M360.214 108.268l-.159-.239-.185-.015 1.875-19.714.2-.02 58.175-6.114.119.484-60.025 25.618zm1.99-19.515l-1.795 18.888 58.1-24.802-56.305 5.914z" fill="#E5E5E6"/><path d="M360.139 108.288l-.114-.483 60.02-25.623.229.443-38.823 23.715-.06.005-21.252 1.943zM417.057 84l-55.371 23.641 19.606-1.789L417.057 84z" fill="#E5E5E6"/><path d="M360.115 108.393l-.175-.185-32.289-33.859.279-.403 34.309 14.418-.015.185-1.865 19.6-.244.244zm-31.272-33.516l31.077 32.589 1.785-18.783-32.862-13.806z" fill="#E5E5E6"/><path d="M336.698 116.21l-.06-.274-9.242-42.573 33.178 34.786-23.876 8.061zm-8.434-41.213l8.803 40.555 22.599-7.628-31.402-32.927z" fill="#E5E5E6"/><path d="M294.813 90.661v-.403l-1.192-32.255 34.793 16.172-33.601 16.486zm-.659-31.86l1.148 31.063 31.945-15.674-33.093-15.39z" fill="#E5E5E6"/><path d="M337.252 116.399l-42.709-26.167 33.462-16.421 9.247 42.588zm-41.666-26.117l40.927 25.081-8.862-40.815-32.065 15.734z" fill="#E5E5E6"/><path d="M294.828 90.342l-19.297-55.786.439-.234 18.17 23.995 1.182 31.935-.494.09zm-18.304-54.46l18.234 52.706-1.112-30.097-17.122-22.61z" fill="#E5E5E6"/><path d="M272.668 92.923l2.848-58.466.489-.07 19.401 56.085-22.738 2.451zm3.287-57.14l-2.758 56.582 21.531-2.322-18.773-54.26z" fill="#E5E5E6"/><path d="M273.162 93.068l-51.686-30.292.399-.214 54.165-28.523-2.878 59.029zM222.509 62.8l50.199 29.415 2.793-57.32L222.509 62.8zm-68.34-3.447l-.149-.468 27.017-15.465 35.043-6.746.129.483-62.01 22.196h-.03zm27.043-15.46l-24.479 14.015 56.234-20.128-31.755 6.113z" fill="#E5E5E6"/><path d="M211.656 62.258l-57.521-2.905-.07-.488 62.394-22.335-4.803 25.728zm-56.245-3.343l55.831 2.815 4.559-24.433-60.39 21.618z" fill="#E5E5E6"/><path d="M154.085 59.423l-34.08-41.398.289-.393 61.392 25.987-27.162 15.55.109.134-.418.04-.13.08zm-33.043-40.93l33.163 40.282 26.359-15.086-59.522-25.195z" fill="#E5E5E6"/><path d="M153.95 59.263l-33.945-41.237.374-.334 19.96 21.329 14.01 19.934-.399.308zm-28.543-35.468l24.753 30.068-10.205-14.523-14.548-15.545z" fill="#E5E5E6"/><path d="M110.01 52.024l-.414-.25.015.006-.015-.01.005-.02 10.359-33.954 6.02-13.945.469.184-16.384 47.924-.055.065zM123.9 9.919l-3.476 8.042-5.975 19.595L123.9 9.919z" fill="#E5E5E6"/><path d="M109.441 52.283l10.649-34.905 20.503 21.912-31.152 12.993zm10.868-33.929l-10.08 33.057 29.502-12.306-19.422-20.75z" fill="#E5E5E6"/><path d="M109.95 52.278l-48.07-42.02 64.698-6.601-16.628 48.621zM63.077 10.642l46.639 40.77L125.845 4.24l-62.768 6.402z" fill="#E5E5E6"/><path d="M109.78 52.094L57.127 39.877 62.31 9.97 110 51.655l-.22.439zm-52.08-12.6l51.213 11.882-46.265-40.44-4.947 28.558z" fill="#E5E5E6"/><path d="M57.626 39.952l-42.788-2.69 47.98-27.293-5.192 29.983zm-41.082-3.089l40.658 2.556 4.938-28.488-45.596 25.932zM.08 41.163v.842l9.147-12.386 4.823 42.593L.08 66.951v.538l14.563 5.485-4.972-43.948.234-.323h-.274l-.045-.41-.304.41h-.155l.02.184L.08 41.163z" fill="#E5E5E6"/><path d="M14.13 72.925L9.127 28.703h.35l.064.035 49.297 29.684-44.709 14.503zM9.71 29.43l4.848 42.832 43.073-13.975L9.71 29.43z" fill="#E5E5E6"/><path d="M82.593 80.089L57.9 58.396 72.379 36.52l.23.135.219-.05 9.765 43.485zM58.558 58.307l23.207 20.387-9.291-41.407-13.916 21.02z" fill="#E5E5E6"/><path d="M82.015 79.8l-9.691-43.17.14-.28.209.075 48.663 17.308L82.015 79.8zm-9.083-42.752l9.412 41.935 37.88-25.116-47.292-16.82z" fill="#E5E5E6"/><path d="M178.224 61.042l-58.359-7.1 43.716-19.908 14.643 27.008zm-56.523-7.383l55.621 6.77-13.956-25.743-41.665 18.973z" fill="#E5E5E6"/><path d="M193.376 83.612l-15.805-22.734-14.314-26.396.434-.25-.14.09.145-.084.005.005 30.094 49.095-.419.274zm-25.182-41.079l9.801 18.08 10.828 15.575-20.629-33.655zm63.691 45.917l25.95-70.598 41.696 48.093-67.646 22.504zm26.13-69.622l-25.297 68.82 65.945-21.937-40.648-46.883z" fill="#E5E5E6"/><path d="M299.222 83.94l-.494-.055.135-18.12 14.509-49.124.064-.29.489.195-.065.224-.199-.035.194.05-14.633 67.155zm.13-18.075l-.105 15.614 12.648-58.083-12.543 42.469z" fill="#E5E5E6"/><path d="M298.638 84.26l.095-.43 14.698-67.488.339.14.045.06 36.075 50.813-51.252 16.904zm15.103-66.967l-14.419 66.214 49.765-16.412-35.346-49.802z" fill="#E5E5E6"/><path d="M380.269 71.52l-31.237-4.096 36.719-49.463.014-.16h.1l.474-.642-.07.642h.215l-.255.35-5.96 53.368zm-30.324-4.484l29.88 3.92 5.811-52.004-35.691 48.084z" fill="#E5E5E6"/><path d="M439.77 77.17l-60-5.71 5.99-53.664h.335l.079.085L439.77 77.17zm-59.446-6.159l58.205 5.536-52.355-57.919-5.85 52.383z" fill="#E5E5E6"/><path d="M496.055 83.836l-57.397-6.781L491.78 13.65l.339-.164.025.379 3.911 69.97zm-56.414-7.17l55.885 6.602-3.85-68.74-52.035 62.138z" fill="#E5E5E6"/><path d="M495.561 83.905l-.02-.338-3.895-69.632-.07-.18.543-.268.02.349 22.843 62.92-19.421 7.15zm-3.327-68.336l3.786 67.629 18.314-6.746-22.1-60.883z" fill="#E5E5E6"/><path d="M513.995 76.866l58.843-53.34.01.01.384.284-23.955 52.438-35.282.608zm58.269-52.149l-56.942 51.626 33.63-.578 23.312-51.048z" fill="#E5E5E6"/><path d="M548.693 76.332l.195-.428 23.915-52.353.279-.21.145.245 25.466 44.665-50 8.081zm24.334-52.073l-23.491 51.426 48.354-7.817-24.863-43.61z" fill="#E5E5E6"/><path d="M599.666 67.514l-.524.115.524-.479v-.677l-2.23 2.022 2.23-.463v-.518zM.08 89.884v1.096l12.877 25.026L.08 117.555v.504l13.656-1.644L.08 89.885z" fill="#E5E5E6"/><path d="M.08 66.95v.539l14.01 5.276-.968 42.453L.08 89.884v1.096l13.047 25.344.474-.109.997-43.615v-.179L.08 66.951z" fill="#E5E5E6"/><path d="M13.526 116.385l-.374-.334 45.097-58.133.284.429-.09.14L33.308 96.54l-19.781 19.845zm40.888-52.707l-38.4 49.498 16.918-16.964 21.482-32.534z" fill="#E5E5E6"/><path d="M13.077 116.962l1.018-44.55 44.827-14.549-45.845 59.099zm1.516-44.182l-.977 42.678L57.53 58.845 14.593 72.78z" fill="#E5E5E6"/><path d="M97.561 108.154L32.708 96.55 58.02 58.212l.2.135.204-.15 39.137 49.957zM33.546 96.187l62.808 11.239-38.11-48.646-24.698 37.407z" fill="#E5E5E6"/><path d="M96.763 107.945L58.035 58.506l.359-.343 23.985 21.07.02.04 14.778 28.398-.414.274zM60.089 60.32l35.397 45.184L81.98 79.551 60.09 60.32z" fill="#E5E5E6"/><path d="M112.653 110.555l-16.055-2.565.135-.299 23.915-54.197.414.14-.03.209-8.379 56.712zm-15.331-2.959l14.907 2.386 8.035-54.39-22.942 52.004z" fill="#E5E5E6"/><path d="M96.977 108.368L81.855 79.307l39.506-26.192-24.384 55.253zM82.51 79.476l14.433 27.736L120.21 54.48l-37.7 24.996z" fill="#E5E5E6"/><path d="M112.149 110.53l8.479-57.415 36.883 56.12-45.362 1.295zm8.788-56.045l-8.204 55.522 43.865-1.255-35.661-54.267z" fill="#E5E5E6"/><path d="M157.097 109.519l-36.828-56.035 57.866 7.04-.135.309-20.903 48.686zm-35.81-55.402l35.715 54.351 20.404-47.52-56.119-6.831z" fill="#E5E5E6"/><path d="M157.147 109.225l-.235-.439 36.589-25.568h.18l.074.07 8.449 8.235-45.057 17.702zm36.409-25.434l-34.619 24.188 42.36-16.64-7.741-7.548z" fill="#E5E5E6"/><path d="M156.479 109.703l21.247-49.483 16.204 23.307-.204.144-37.247 26.032zm21.346-48.457l-20.194 47.033 35.601-24.877-15.407-22.156z" fill="#E5E5E6"/><path d="M250.005 120.893l-48.409-29.26-8.17-7.967-.688-.453h.943l.059.055 56.529 37.197-.264.428zM201.91 91.229l37.117 22.44-43.381-28.543 6.264 6.103z" fill="#E5E5E6"/><path d="M249.995 120.888l-56.554-37.212.165-.458 38.853 4.598 17.895 32.743-.359.329zm-55.392-37.047l54.828 36.076-17.286-31.632-37.542-4.444z" fill="#E5E5E6"/><path d="M283.82 125.103l-34.194-4.23 49.287-55.208.429.23-15.522 59.208zm-33.177-4.613l32.808 4.06 15.147-57.773-47.955 53.713z" fill="#E5E5E6"/><path d="M250.085 121.113L231.94 87.906l67.975-22.61-49.83 55.817zm-17.417-32.918l17.516 32.056 48.1-53.883-65.616 21.827z" fill="#E5E5E6"/><path d="M283.297 125.133l15.73-60.015 26.489 53.314-42.219 6.701zm15.875-58.59l-15.197 57.978 40.788-6.477-25.591-51.501z" fill="#E5E5E6"/><path d="M324.938 118.392l-26.21-34.422.12-18.14.474-.11 26.04 52.408-.424.264zm-25.706-34.591l24.514 32.19-24.399-49.105-.115 16.915z" fill="#E5E5E6"/><path d="M324.723 118.522l24.504-51.327-.06-.279.174.03.245-.508.115.568.154.025-.105.229 9.736 48.567-34.763 2.695zm24.668-50.505l-23.835 49.937 33.332-2.581-9.497-47.356z" fill="#E5E5E6"/><path d="M325.187 118.716l-26.619-34.965 51.402-16.95-24.783 51.915zm-25.796-34.7l25.696 33.749 23.92-50.111-49.616 16.361z" fill="#E5E5E6"/><path d="M359.032 116.1l-9.86-49.18.419.07.05.035 33.96 25.14-24.569 23.935zm-9.167-48.287l9.476 47.286 23.492-22.883-32.968-24.403z" fill="#E5E5E6"/><path d="M383.551 92.754l-34.993-25.902 31.711 4.16.025.189 3.257 21.553zm-33.132-25.15l32.459 24.024-3.048-20.163-29.411-3.861z" fill="#E5E5E6"/><path d="M432.588 126.02l-49.965-33.929 56.579-15.51.219.16-.02.15-6.813 49.129zm-48.783-33.734l48.399 32.862 6.649-47.949-55.048 15.087z" fill="#E5E5E6"/><path d="M383.007 92.505l-3.257-21.548 59.422 5.65.04.493-56.205 15.405zm-2.663-20.986l3.072 20.358 54.344-14.892-57.416-5.466z" fill="#E5E5E6"/><path d="M488.304 128.098l-56.189-2.272 6.862-49.513.36.373 48.967 51.412zm-55.616-2.756l54.399 2.203-47.76-50.136-6.639 47.933z" fill="#E5E5E6"/><path d="M487.855 128.352l-49.366-51.825 57.596 6.806-.05.264-8.18 44.755zM439.81 77.189l47.726 50.102 7.96-43.525-55.686-6.577z" fill="#E5E5E6"/><path d="M487.905 127.953l-.434-.249 26.953-51.202.095-.214.493.184-.129.254-.18-.075.175.085-11.985 27.288-14.988 23.929zm23.671-44.954l-20.544 39.02 11.417-18.235 9.127-20.785z" fill="#E5E5E6"/><path d="M487.92 127.938l-.469-.164 8.12-44.412 19.616-7.224-27.267 51.8zm8.095-44.202l-7.781 42.518 25.896-49.19-18.115 6.672z" fill="#E5E5E6"/><path d="M502.204 104.342l12.315-28.054.224.084 28.15 13.92-40.689 14.05zm12.574-27.397l-11.651 26.55 38.469-13.287-26.818-13.263z" fill="#E5E5E6"/><path d="M542.364 90.582l-27.816-13.756.105-.474 34.863-.603-7.152 14.833zM515.695 76.84l26.434 13.068 6.584-13.641-33.018.573z" fill="#E5E5E6"/><path d="M597.546 126.01L541.7 90.193l56.649-22.425.194.194v.11l-.997 57.938zm-54.753-35.712l54.264 34.8.978-56.672-55.242 21.872z" fill="#E5E5E6"/><path d="M541.74 90.716l7.207-14.931 49.302-7.972.13.483-56.639 22.42zm7.542-14.478l-6.534 13.537 53.297-21.1-46.763 7.563z" fill="#E5E5E6"/><path d="M599.666 123.723l-2.105 1.365.962-56.224 1.143 1.714v-.907l-1.611-2.416-1.003 58.297-.01.468 2.624-1.699v-.598z" fill="#E5E5E6"/><path d="M599.666 69.676l-.963-1.45.963-.2v-.512l-1.796.373 1.796 2.69v-.901zM.08 138.476l13.042-21.424 1.112 35.289L.08 158.579v.543l14.663-6.452-1.142-36.47-.005-.089-.284-.329L.08 137.509v.967z" fill="#E5E5E6"/><path d="M.08 117.55v.508l12.783-1.539L.08 137.509v.966l13.75-22.579L.08 117.55z" fill="#E5E5E6"/><path d="M62.783 165.036l-48.539-12.331-1.147-36.49.234-.005.195-.179 49.257 49.005zm-48.045-12.725l46.394 11.788-47.511-47.261 1.117 35.473z" fill="#E5E5E6"/><path d="M61.78 164.742l-48.788-48.537 20.225-20.277 28.972 68.54-.409.274zM13.7 116.205l47.527 47.281L33.042 96.81 13.7 116.205z" fill="#E5E5E6"/><path d="M108.319 166.212l-46.803-1.41 35.182-57.056-.05-.26.19.03.249-.403.085.458.194.035-.144.234 11.097 58.372zm-45.92-1.884l45.312 1.361-10.878-57.216-34.434 55.855z" fill="#E5E5E6"/><path d="M61.915 165.115L32.718 96.042l64.649 11.569-35.452 57.504zM33.541 96.7L62 164.024l34.558-56.045-63.017-11.28z" fill="#E5E5E6"/><path d="M107.83 166.331l-.065-.334-11.122-58.511.44.075.059.065 38.728 43.305-28.04 15.4zm-10.454-57.699l10.818 56.932 26.883-14.767-37.7-42.165z" fill="#E5E5E6"/><path d="M135.291 151.025l-38.987-43.594 16.294 2.606.06.104 23.037 40.59-.404.294zm-37.67-42.876l36.483 40.794-21.82-38.448-14.663-2.346z" fill="#E5E5E6"/><path d="M178.045 164.283l-42.928-13.272 21.97-42.638 20.958 55.91zm-42.21-13.576l41.382 12.794-20.2-53.887-21.182 41.093z" fill="#E5E5E6"/><path d="M135.486 151.39l-23.471-41.358 45.456-1.3-21.985 42.658zm-22.623-40.884l22.603 39.822 21.172-41.073-43.775 1.251z" fill="#E5E5E6"/><path d="M177.481 164.198l-20.663-55.118.239-.089.13-.21 66.444 41.95-.534.155-45.616 13.312zm-19.93-54.595l20.234 53.983 44.639-13.029-64.873-40.954z" fill="#E5E5E6"/><path d="M223.511 151.245l-67.007-42.304L201.9 91.1l.09.244 21.521 59.901zm-65.905-42.199l64.938 40.993-20.943-58.282-43.995 17.289z" fill="#E5E5E6"/><path d="M239.451 158.14l-16.843-7.403 27.317-30.232.095-.05.135.174.219.12h-.005l.005.005-10.923 37.386zm-16.005-7.587l15.681 6.89 10.454-35.787-26.135 28.897z" fill="#E5E5E6"/><path d="M222.932 151.12l-21.655-60.27 49.246 29.774-27.591 30.496zm-20.708-59.109l20.898 58.153 26.623-29.43-47.521-28.723z" fill="#E5E5E6"/><path d="M238.943 158.105l10.987-37.6.22-.11.114.065 49.561 27.89-.713.11-60.169 9.645zm11.346-37.052l-10.643 36.43 58.678-9.397-48.035-27.033z" fill="#E5E5E6"/><path d="M298.948 148.435l-48.933-27.536.154-.469 33.611 4.16 15.502 23.486-.334.359zm-47.577-27.352l46.918 26.406-14.798-22.425-32.12-3.981z" fill="#E5E5E6"/><path d="M298.349 148.664l26.673-30.675h.315l.049.189 5.467 22.081-32.504 8.405zm26.663-29.898l-25.222 29.006 30.454-7.871-5.232-21.135z" fill="#E5E5E6"/><path d="M299.042 148.629l-15.835-23.989 42.569-6.756-26.734 30.745zm-14.982-23.616l15.037 22.789 25.397-29.206-40.434 6.417z" fill="#E5E5E6"/><path d="M330.354 140.354l-5.441-21.982-.394-.383h.304l-.135-.538.554.538h.095l.03.124 21.132 20.567-16.145 1.674zm-4.763-21.324l5.142 20.776 14.639-1.515-19.781-19.261z" fill="#E5E5E6"/><path d="M345.99 138.884l-21.427-20.855 35.078-2.716-13.651 23.571zm-20.279-20.437l20.164 19.63 12.853-22.186-33.017 2.556z" fill="#E5E5E6"/><path d="M345.401 138.739l37.616-46.708.315.17.129.015-4.972 46.165-33.088.358zm37.472-45.726l-36.409 45.218 31.581-.339 4.828-44.88z" fill="#E5E5E6"/><path d="M346.13 138.64l-.414-.284 13.296-22.938 24.025-23.412.369.334-37.276 46.3zm13.251-22.883l-11.596 20.018 32.619-40.505-21.023 20.487z" fill="#E5E5E6"/><path d="M377.985 138.426l.035-.319 4.947-45.976.125-.374.284.23 48.225 39.613-53.616 6.826zm5.431-45.747l-4.863 45.169 51.831-6.592-46.968-38.577z" fill="#E5E5E6"/><path d="M431.142 131.879l-48.09-39.499.304-.403 49.327 33.495-1.541 6.407zm-43.516-36.39l43.217 35.498 1.272-5.286-44.489-30.212z" fill="#E5E5E6"/><path d="M495.282 151.061l-.454-.135-63.91-19.251.06-.493 56.583-3.603.22-.333.154.498 7.347 23.317zm-62.883-19.466l62.12 18.708-7.003-22.22-55.117 3.512z" fill="#E5E5E6"/><path d="M430.668 131.704l1.536-6.382 55.502 2.247.005.503-57.043 3.632zm1.925-5.859l-1.276 5.316 51.546-3.283-50.27-2.033z" fill="#E5E5E6"/><path d="M494.718 150.946l-7.237-22.958-.134-.095.074-.109-.174-.563.379.254.149-.224.13.418 32.644 21.747-25.831 1.53zm-6.568-22.52l6.927 21.997 23.95-1.425-30.877-20.572z" fill="#E5E5E6"/><path d="M520.304 149.845l-32.952-21.952 15.371-24.537 17.581 46.489zm-32.269-22.096l31.242 20.82-16.669-44.087-14.573 23.267z" fill="#E5E5E6"/><path d="M519.371 149.606l.185-.488 22.454-58.96.304.055.155-.08 22.628 44.76-.279.09-45.447 14.623zm22.903-58.74l-22.065 57.948 44.175-14.219-22.11-43.73z" fill="#E5E5E6"/><path d="M519.79 149.91l-17.456-46.146 40.334-13.935-22.878 60.081zm-16.798-45.842l16.798 44.427 22.03-57.839-38.828 13.412z" fill="#E5E5E6"/><path d="M579.441 164.134l-14.928-29.281-22.523-44.546v-.064l.479-.115 37.416 73.776-.444.23z" fill="#E5E5E6"/><path d="M579.676 164.597l-.235-.463-37.84-74.599 56.015 35.927-17.94 39.135zm-36.793-73.642l36.768 72.486 17.331-37.795-54.099-34.69z" fill="#E5E5E6"/><path d="M599.666 149.466l-18.679 13.303 18.679-23.297v-.807l-20.2 25.195.339.364 19.861-14.145v-.613z" fill="#E5E5E6"/><path d="M599.666 138.665l-18.928 23.61 16.758-36.549 2.17-1.405v-.598l-2.504 1.619-.055.04-17.671 38.533.424.264 19.806-24.707v-.807zM.08 170.551l25.676 5.62L.08 182.448v.514l26.848-6.562-.005-.483L.08 170.033v.518z" fill="#E5E5E6"/><path d="M.08 159.127l14.299-6.298 12.02 22.968-26.32-5.764v.518l27.263 5.969-12.739-24.338L.08 158.579v.548z" fill="#E5E5E6"/><path d="M53.242 196.394l-26.908-20.323 35.546-11.748.15.264.17.05-8.958 31.757zm-25.84-20.148l25.55 19.301 8.634-30.596L27.4 176.246z" fill="#E5E5E6"/><path d="M26.743 176.465l-12.738-24.343 48.848 12.411-36.11 11.932zm-11.77-23.576l12.02 22.963 34.07-11.254-46.09-11.709z" fill="#E5E5E6"/><path d="M88.519 205.058l-35.731-8.908 8.948-31.727.274-.244.16.244 26.349 40.635zm-35.108-9.272l33.995 8.475-25.351-39.101-8.644 30.626z" fill="#E5E5E6"/><path d="M87.985 205.157L61.49 164.298l46.933 1.41-20.44 39.449zm-25.556-40.326l25.506 39.33 19.671-37.974-45.177-1.356z" fill="#E5E5E6"/><path d="M88.15 204.823l-.385-.319 25.337-32.399 22.329-21.548.454.229-.214.244-47.522 53.793zm42.997-49.433l-17.676 17.049-20.15 25.773 37.826-42.822z" fill="#E5E5E6"/><path d="M88.15 204.824l-.41-.284 20.09-38.777.065-.04 27.466-15.086.31.384-47.521 53.803zm20.049-38.692l-19.082 36.833 45.217-51.192-26.135 14.359z" fill="#E5E5E6"/><path d="M144.648 192.826l-31.755-20.531 22.533-21.743.265.13.03.119 8.927 42.025zm-30.947-20.606l30.209 19.525-8.583-40.391-21.626 20.866z" fill="#E5E5E6"/><path d="M144.12 192.752l-.09-.409-8.893-41.845 43.003 13.292-34.02 28.962zm-8.31-41.527l8.624 40.595 32.683-27.826-41.307-12.769z" fill="#E5E5E6"/><path d="M224.374 194.735l-.264-.01-80.793-2.212 79.96-42.289v.418l1.097 44.093zm-79.132-2.671l78.613 2.153-1.072-43.161-77.541 41.008z" fill="#E5E5E6"/><path d="M144.399 192.513l-.279-.414 33.396-28.433.05-.015 45.391-13.253.19.463-78.748 41.652zm33.356-28.394l-31.571 26.879 74.544-39.419-42.973 12.54z" fill="#E5E5E6"/><path d="M223.875 194.824l-1.117-45.034.479.712 24.394 36.171-23.756 8.151zm-.579-43.33l1.058 42.633 22.489-7.718-23.547-34.915z" fill="#E5E5E6"/><path d="M247.032 186.683l-24.693-36.619 17.167 7.548 7.98 28.862-.454.209zm-23.311-35.463l22.862 33.904-7.506-27.153-15.356-6.751z" fill="#E5E5E6"/><path d="M247.371 186.748l-.284-.413 51.9-38.368h.779l-.534.443-28.105 23.282-23.756 15.056zm44.544-32.932l-38.898 28.762 17.811-11.294 21.087-17.468z" fill="#E5E5E6"/><path d="M247.092 186.962l-8.119-29.37.279-.045 59.775-9.575.19.453-52.125 38.537zm-7.481-28.966l7.771 28.124 50.708-37.491-58.479 9.367z" fill="#E5E5E6"/><path d="M325.002 189.085l-54.548-17.488 28.678-23.755 25.87 41.243zm-53.521-17.687l52.364 16.785-24.838-39.589-27.526 22.804z" fill="#E5E5E6"/><path d="M324.583 189.364l-25.905-41.303 32.165-8.315-.045.369-6.215 49.249zm-25.122-40.989l24.798 39.529 5.985-47.49-30.783 7.961z" fill="#E5E5E6"/><path d="M323.96 189.065l.229-.533 21.561-50.275.409-.085.02.289 2.479 41.671-24.698 8.933zm21.785-49.513l-20.862 48.651 23.261-8.41-2.399-40.241z" fill="#E5E5E6"/><path d="M324.648 188.736l-.479-.13 6.15-48.751 16.01-1.664-.164.394-21.517 50.151zm6.12-48.427l-5.875 46.593 20.638-48.123-14.763 1.53z" fill="#E5E5E6"/><path d="M413.082 199.567l-64.923-19.415-.01-.175-2.459-41.372-.299-.269.28-.055-.025-.393.359.329.154-.035.015.189 67.142 60.768-.234.428zm-64.439-19.794l63.521 18.997-65.94-59.682 2.419 40.685z" fill="#E5E5E6"/><path d="M412.982 199.508l-67.696-61.271 33.123-.354.074.129 34.888 61.187-.389.309zm-66.409-60.778l65.586 59.353-34.04-59.697-31.546.344z" fill="#E5E5E6"/><path d="M412.813 199.632l17.935-68.341.653-.438-.164.628-5.905 66.074-12.519 2.077zm17.666-65.247l-16.988 64.625 11.372-1.884 5.616-62.741z" fill="#E5E5E6"/><path d="M413.237 199.981l-35.377-62.044.369-.049 53.098-6.751-18.09 68.844zm-34.564-61.64l34.394 60.325 17.586-66.936-51.98 6.611z" fill="#E5E5E6"/><path d="M424.823 197.654l.03-.339 5.9-66.024.264-.174.145.129 59.012 53.893-65.351 12.515zm6.369-65.695l-5.816 65.077 63.721-12.206-57.905-52.871z" fill="#E5E5E6"/><path d="M489.81 185.482l-58.987-53.862.239-.429 64.115 19.316-5.367 34.975zm-57.835-53.493l57.486 52.487 5.157-33.62-62.643-18.867z" fill="#E5E5E6"/><path d="M510.753 203.812l-21.472-18.798.16-.189 30.155-35.777.244.169.195.035-9.282 54.56zm-20.768-18.857l20.419 17.891 8.982-52.772-29.401 34.881z" fill="#E5E5E6"/><path d="M489.257 185.826l5.426-35.383.205-.01 25.476-1.515-31.107 36.908zm5.86-34.9l-5.092 33.211 29.202-34.651-24.11 1.44z" fill="#E5E5E6"/><path d="M510.229 203.897l9.342-54.819.204-.339.22.329 21.237 32.005-.19.14-30.813 22.684zm9.701-54.032l-8.998 52.891 29.621-21.812-20.623-31.079z" fill="#E5E5E6"/><path d="M540.923 181.502l-21.527-32.434 45.846-14.753-24.319 47.187zm-20.739-32.16l20.684 31.168 23.366-45.348-44.05 14.18z" fill="#E5E5E6"/><path d="M599.666 180.072l-57.537.667 37.507-16.436 20.03 14.274v-.618l-19.861-14.149-.239-.164-.085.179-38.683 16.954.099.479 58.769-.683v-.503z" fill="#E5E5E6"/><path d="M540.349 181.522l24.394-47.331 15.267 29.953-39.661 17.378zm24.389-46.235l-23.297 45.204 37.875-16.596-14.578-28.608z" fill="#E5E5E6"/><path d="M599.666 177.959l-19.068-13.581 19.068 2.137v-.503l-19.906-2.232-.194-.139-.05.109-.788-.089.613.438-.059.135.289.024 20.095 14.319v-.618z" fill="#E5E5E6"/><path d="M599.666 166.012l-19.322-2.172 19.322-13.761v-.613l-20.684 14.733 20.684 2.316v-.503zM.08 201.655l23.735-22.285L.08 207.345v.777l26.977-31.802-.359-.348L.08 200.967v.688z" fill="#E5E5E6"/><path d="M.08 182.448v.514l26.1-6.373-26.1 30.756v.777l27.481-32.39L.08 182.448z" fill="#E5E5E6"/><path d="M.08 201.655l26.548-24.926 1.133 57.076L.08 218.659v.573l28.2 15.435-1.173-59.079L.08 200.967v.688z" fill="#E5E5E6"/><path d="M27.79 235.051l-1.182-59.403 26.828 20.268-25.646 39.135zm-.658-58.382l1.127 56.748 24.504-37.387-25.63-19.361z" fill="#E5E5E6"/><path d="M27.306 234.871l25.681-39.185.175.045 35.526 8.853-61.382 30.287zm25.906-38.617l-24.474 37.347 58.499-28.867-34.025-8.48z" fill="#E5E5E6"/><path d="M110.279 234.343l-22.638-29.684 25.95-33.181-3.312 62.865zm-22.005-29.679l21.576 28.289 3.157-59.916-24.733 31.627z" fill="#E5E5E6"/><path d="M109.466 233.974l34.619-41.845.159.129h.285l3.98 36.939-39.043 4.777zm34.629-41.068l-33.437 40.411 37.302-4.564-3.865-35.847z" fill="#E5E5E6"/><path d="M109.775 234.393l3.297-62.581 31.581 20.422-34.878 42.159zm3.751-61.685l-3.172 60.19 33.551-40.555-30.379-19.635z" fill="#E5E5E6"/><path d="M188.094 231.663l-40.084-2.447-4.045-37.55 44.129 39.997zm-39.63-2.92l38.234 2.332-42.095-38.154 3.861 35.822z" fill="#E5E5E6"/><path d="M187.401 231.712l-43.795-39.693 81.097 2.217-37.302 37.476zm-42.448-39.15l42.433 38.458 36.145-36.311-78.578-2.147z" fill="#E5E5E6"/><path d="M187.481 231.603l-.234-.439 59.84-44.83.23.19.169-.025 3.247 22.415-63.252 22.689zm59.566-44.611l-58.169 43.57 61.297-21.982-3.128-21.588z" fill="#E5E5E6"/><path d="M187.546 231.563l-.324-.373 36.763-36.934.055-.02 23.122-7.936.229.438-59.845 44.825zm36.708-36.873l-34.239 34.397 55.795-41.796-21.556 7.399z" fill="#E5E5E6"/><path d="M292.284 215.675l-42.05-6.706-3.252-22.47.16-.324.239.15 45.083 28.892-.18.458zm-41.606-7.145l40.499 6.457-43.611-27.94 3.112 21.483z" fill="#E5E5E6"/><path d="M292.938 216.118l-46.165-29.584 24.299-15.4.12.254 21.746 44.73zm-45.232-29.579l44 28.194-20.843-42.872-23.157 14.678z" fill="#E5E5E6"/><path d="M334.708 224.08l-42.948-8.505 32.918-27.477v.503l10.03 35.479zm-41.82-8.794L334 223.432l-9.716-34.352-31.396 26.206z" fill="#E5E5E6"/><path d="M292.234 215.824l-.139-.289-21.611-44.461 54.448 17.458-32.698 27.292zm-20.788-43.913l20.958 43.116 31.501-26.296-52.459-16.82z" fill="#E5E5E6"/><path d="M360.833 245.648L334.139 223.9l-.025-.075-9.94-35.154v-.887l.459.713 36.564 56.817-.364.334zm-26.26-22.037l25.347 20.647-34.808-54.077 9.461 33.43z" fill="#E5E5E6"/><path d="M360.778 245.588l-36.738-57.081.299-.105 24.249-8.774.06.294 12.589 65.486-.459.18zm-35.975-56.822l35.696 55.462-12.29-63.927-23.406 8.465z" fill="#E5E5E6"/><path d="M360.828 245.927l-.085-.434-12.668-65.889 65.586 19.609-.34.299-52.493 46.415zm-12.1-65.606l12.429 64.649 51.496-45.532-63.925-19.117zm78.055 46.424l-.245-.438 62.978-41.547.025-.01.264.419-25.865 24.547-.04.02-37.117 17.009zm60.638-40.002l-57.875 38.184 34.11-15.634 23.765-22.55z" fill="#E5E5E6"/><path d="M426.449 226.97l-1.616-29.834 64.753-12.401.184.454-63.321 41.781zm-1.088-29.425l1.542 28.518 61.541-40.595-63.083 12.077z" fill="#E5E5E6"/><path d="M538.519 221.878l-75.262-12.211 26.359-25.016 49.092 36.774-.189.453zm-74.185-12.54l73.257 11.882-47.935-35.906-25.322 24.024z" fill="#E5E5E6"/><path d="M538.424 221.843l-27.98-18.305-20.978-18.369.314-.389 48.933 36.649-.289.414zm-43.681-32.718l16 14.015 21.352 13.965-37.352-27.98z" fill="#E5E5E6"/><path d="M535.885 238.792l-.494-.065 5.257-57.828.554-.563-.065.742-2.329 40.565-2.923 17.149zM539.78 196l-3.311 36.395 1.845-10.806L539.78 196z" fill="#E5E5E6"/><path d="M538.788 222.077l-28.648-18.743 31.037-22.844-2.389 41.587zm-27.766-18.763l27.317 17.876 2.279-39.659-29.596 21.783z" fill="#E5E5E6"/><path d="M599.666 215.745l-63.746 22.639 5.192-56.982 58.554 30.417v-.563l-58.988-30.641-5.327 58.506 64.315-22.848v-.528z" fill="#E5E5E6"/><path d="M599.666 211.255L541.9 181.248l57.766-.673v-.503l-58.773.687-.115.474 58.888 30.585v-.563z" fill="#E5E5E6"/><path d="M11.94 28.952c0-1.4-1.132-2.541-2.533-2.541h-.005a2.538 2.538 0 00-2.534 2.54c0 1.4 1.132 2.537 2.534 2.537h.005a2.527 2.527 0 002.533-2.536z" fill="#BABCBE"/><path d="M72.588 35.294a1.368 1.368 0 00-1.366 1.37c0 .757.613 1.37 1.367 1.37.518 0 .972-.289 1.201-.717.105-.195.165-.419.165-.653 0-.757-.608-1.37-1.367-1.37zm90.888-6.945a5.998 5.998 0 00-5.995 6.008v.005c0 3.318 2.683 6.009 5.995 6.009 3.312 0 5.995-2.69 5.995-6.009v-.005c0-3.318-2.683-6.008-5.995-6.008z" fill="#CED1D2"/><path d="M257.925 17.1c-.129 0-.254.019-.369.054a1.247 1.247 0 00.738 2.381c.504-.159.873-.627.873-1.185 0-.693-.553-1.25-1.242-1.25z" fill="#E5E5E6"/><path d="M314.738 13.322a3.54 3.54 0 00-4.668 3.369c0 1.47.892 2.735 2.164 3.273a3.546 3.546 0 004.923-3.273 3.545 3.545 0 00-2.419-3.368zm71.252 2.895a1.827 1.827 0 00-1.825 1.834c0 1.011.813 1.833 1.825 1.833 1.007 0 1.83-.822 1.83-1.833a1.832 1.832 0 00-1.83-1.834zm105.9.523a2.858 2.858 0 002.858-2.86 2.862 2.862 0 00-2.858-2.864 2.864 2.864 0 00-2.853 2.865 2.857 2.857 0 002.853 2.86zm83.546 6.97a2.434 2.434 0 00-2.434-2.436c-.583 0-1.127.21-1.546.558a2.445 2.445 0 00-.883 1.878 2.43 2.43 0 003.975 1.883 2.45 2.45 0 00.888-1.883z" fill="#CED1D2"/><path d="M11.845 72.59a2.5 2.5 0 002.499 2.507 2.5 2.5 0 002.499-2.506 2.5 2.5 0 10-4.998 0z" fill="#E5E5E6"/><path d="M58.23 64.365c3.311 0 5.994-2.695 5.994-6.008a6 6 0 00-1.022-3.358 5.993 5.993 0 00-10.968 3.363 5.97 5.97 0 001.023 3.358 6 6 0 004.972 2.645z" fill="#A5A7AA"/><path d="M84.728 79.392a2.55 2.55 0 00-2.548-2.556 2.55 2.55 0 00-2.55 2.556 2.55 2.55 0 105.097 0z" fill="#CED1D2"/><path d="M121.406 51.795a2.099 2.099 0 00-2.718 2.008c0 .941.619 1.738 1.472 2.007a2.099 2.099 0 002.718-2.008c0-.94-.619-1.738-1.472-2.007z" fill="#EFF0F0"/><path d="M177.776 56.727c-2.21 0-4 1.794-4 4.006a4 4 0 004 4.006 4.002 4.002 0 003.995-4.006 4.002 4.002 0 00-3.995-4.005zm15.805 25.38a1.36 1.36 0 10-.004 2.72 1.36 1.36 0 00.004-2.72zm38.723 3.672a2.27 2.27 0 000 4.544 2.267 2.267 0 002.265-2.272 2.267 2.267 0 00-2.265-2.272z" fill="#E5E5E6"/><path d="M299.097 62.268a3.557 3.557 0 00-3.551 3.562 3.557 3.557 0 003.551 3.562 3.558 3.558 0 003.556-3.562 3.558 3.558 0 00-3.556-3.562z" fill="#BABCBE"/><path d="M349.93 65.078a2.188 2.188 0 00-2.628 2.147c0 1.086.778 1.983 1.81 2.157.125.02.25.035.379.035a2.188 2.188 0 002.185-2.192 2.188 2.188 0 00-1.746-2.147z" fill="#CED1D2"/><path d="M380.05 73.02c.982 0 1.775-.798 1.775-1.784a1.777 1.777 0 10-3.556 0c0 .986.798 1.783 1.781 1.783z" fill="#BABCBE"/><path d="M440.888 74.743a2.706 2.706 0 00-1.736-.628 2.744 2.744 0 000 5.485 2.743 2.743 0 002.738-2.745 2.73 2.73 0 00-1.002-2.112zm52.853 8.809a2.053 2.053 0 104.104 0 2.054 2.054 0 00-2.05-2.058 2.055 2.055 0 00-2.054 2.058z" fill="#CED1D2"/><path d="M516.633 76.606a1.978 1.978 0 10-3.955.005c0 .817.499 1.525 1.207 1.824a1.984 1.984 0 002.748-1.828z" fill="#BABCBE"/><path d="M549.112 74.434c-.868 0-1.571.708-1.571 1.58 0 .871.703 1.579 1.571 1.579.873 0 1.576-.708 1.576-1.58 0-.871-.703-1.579-1.576-1.579z" fill="#CED1D2"/><path d="M599.666 65.307a3.055 3.055 0 00-1.382-.329 3.078 3.078 0 00-3.072 3.084c0 .852.344 1.624.903 2.177a3.048 3.048 0 003.551.578v-5.51zM13.347 119.922a3.711 3.711 0 00-.005-7.423 3.712 3.712 0 00-3.706 3.716c0 .897.32 1.719.848 2.362a3.727 3.727 0 002.863 1.345z" fill="#E5E5E6"/><path d="M33.132 94.692c-.928 0-1.676.752-1.676 1.679a1.676 1.676 0 103.352 0 1.683 1.683 0 00-1.676-1.68z" fill="#BABCBE"/><path d="M97.386 105.712a2.121 2.121 0 00-2.549 2.078 2.127 2.127 0 002.12 2.127 2.126 2.126 0 002.125-2.127 2.12 2.12 0 00-1.695-2.078zm15.053 6.258c.938 0 1.701-.762 1.701-1.704s-.763-1.704-1.701-1.704c-.938 0-1.701.762-1.701 1.704s.763 1.704 1.701 1.704z" fill="#E5E5E6"/><path d="M201.75 88.434a2.99 2.99 0 00-2.987 2.994 2.99 2.99 0 002.987 2.995 2.99 2.99 0 002.988-2.995 2.994 2.994 0 00-2.988-2.994z" fill="#EFF0F0"/><path d="M250.135 122.233a1.555 1.555 0 001.551-1.554c0-.857-.694-1.554-1.551-1.554a1.557 1.557 0 00-1.552 1.554c0 .857.699 1.554 1.552 1.554z" fill="#BABCBE"/><path d="M283.636 123.464a1.36 1.36 0 00-1.362 1.36c0 .752.609 1.365 1.362 1.365a1.362 1.362 0 000-2.725z" fill="#E5E5E6"/><path d="M325.137 120.684a2.443 2.443 0 002.439-2.446 2.443 2.443 0 00-2.439-2.446 2.444 2.444 0 00-2.439 2.446 2.444 2.444 0 002.439 2.446z" fill="#BABCBE"/><path d="M361.9 115.602a2.722 2.722 0 00-2.718-2.725 2.725 2.725 0 00-2.718 2.725 2.718 2.718 0 105.436 0z" fill="#EFF0F0"/><path d="M383.212 90.94c-.688 0-1.247.558-1.247 1.251 0 .688.564 1.25 1.247 1.25.429 0 .808-.219 1.032-.553a1.21 1.21 0 00.215-.697 1.245 1.245 0 00-1.247-1.25z" fill="#CED1D2"/><path d="M432.204 123.594a2.811 2.811 0 00-2.244 4.499c-.035.02-.075.035-.11.054a2.813 2.813 0 00-1.466 2.472 2.812 2.812 0 002.808 2.815c.768 0 1.471-.319 1.98-.822a2.8 2.8 0 00.254-3.677 2.807 2.807 0 001.577-2.526 2.803 2.803 0 00-2.799-2.815z" fill="#BABCBE"/><path d="M488.598 128.207a.986.986 0 10-1.89-.384c0 .548.439.987.978.987a.98.98 0 00.912-.603z" fill="#A5A7AA"/><path d="M502.663 101.124a2.794 2.794 0 00-2.788 2.795 2.793 2.793 0 002.788 2.795 2.79 2.79 0 002.788-2.795 2.79 2.79 0 00-2.788-2.795zm39.581-13.886a3.004 3.004 0 00-3.002 3.005v.005a3.004 3.004 0 003.002 3.004 3.001 3.001 0 002.998-3.004v-.005a3.001 3.001 0 00-2.998-3.005z" fill="#E5E5E6"/><path d="M599.267 125.552a1.966 1.966 0 00-1.965-1.973 1.969 1.969 0 00-1.965 1.973 1.97 1.97 0 001.965 1.973 1.967 1.967 0 001.965-1.973z" fill="#BABCBE"/><path d="M14.494 148.076a4.425 4.425 0 00-4.42 4.429 4.424 4.424 0 004.42 4.425 4.42 4.42 0 004.414-4.425c0-2.441-1.975-4.429-4.414-4.429z" fill="#E5E5E6"/><path d="M61.96 162.734c-.444 0-.848.154-1.162.418a1.821 1.821 0 00-.663 1.415c0 1.007.813 1.824 1.825 1.824.439 0 .848-.155 1.162-.414.404-.339.663-.842.663-1.415a1.836 1.836 0 00-1.825-1.828z" fill="#A5A7AA"/><path d="M110.399 165.948a2.384 2.384 0 10-4.768 0 2.383 2.383 0 104.768 0zM87.96 203.189a1.468 1.468 0 000 2.935 1.468 1.468 0 000-2.935z" fill="#E5E5E6"/><path d="M136.808 148.4a2.781 2.781 0 00-1.332-.334 2.793 2.793 0 00-2.793 2.8 2.795 2.795 0 002.793 2.795 2.794 2.794 0 002.793-2.795 2.798 2.798 0 00-1.461-2.466z" fill="#BABCBE"/><path d="M177.631 161.777a2.117 2.117 0 00-2.115 2.123 2.116 2.116 0 104.23 0 2.111 2.111 0 00-2.115-2.123z" fill="#E5E5E6"/><path d="M223.027 153.078a2.437 2.437 0 000-4.872 2.434 2.434 0 00-2.434 2.436 2.437 2.437 0 002.434 2.436z" fill="#EFF0F0"/><path d="M239.292 155.599c-1.207 0-2.19.987-2.19 2.192a2.19 2.19 0 104.379 0 2.192 2.192 0 00-2.189-2.192z" fill="#CED1D2"/><path d="M299.072 147.035a1.18 1.18 0 00-1.177 1.181 1.18 1.18 0 001.177 1.181 1.18 1.18 0 001.177-1.181 1.186 1.186 0 00-1.177-1.181z" fill="#BABCBE"/><path d="M328.733 140.08a1.81 1.81 0 103.621 0 1.814 1.814 0 00-1.81-1.814c-.998 0-1.811.812-1.811 1.814z" fill="#CED1D2"/><path d="M347.122 142.307a4.011 4.011 0 002.808-3.826 3.997 3.997 0 00-3.995-4.001 4.006 4.006 0 000 8.011c.409 0 .813-.069 1.187-.184z" fill="#E6E6E6"/><path d="M494.898 147.648a3.03 3.03 0 00-3.028 3.034 3.03 3.03 0 106.06 0 3.03 3.03 0 00-3.032-3.034z" fill="#E5E5E6"/><path d="M519.791 147.628c-.649 0-1.212.394-1.452.962-.08.189-.12.398-.12.612 0 .872.704 1.58 1.572 1.58a1.57 1.57 0 001.301-.698 1.574 1.574 0 00-1.301-2.456zm44.947-16.168a3.28 3.28 0 00-3.277 3.284 3.28 3.28 0 003.277 3.283 3.278 3.278 0 003.272-3.283 3.272 3.272 0 00-3.272-3.284zm14.923 30.039c-.694 0-1.322.284-1.776.742a2.495 2.495 0 00-.738 1.783 2.517 2.517 0 002.514 2.522 2.521 2.521 0 002.518-2.522v-.004a2.52 2.52 0 00-2.518-2.521z" fill="#BABCBE"/><path d="M26.868 178.906a2.745 2.745 0 002.743-2.75c0-1.52-1.232-2.75-2.743-2.75a2.745 2.745 0 00-2.743 2.75 2.742 2.742 0 002.743 2.75z" fill="#A5A7AA"/><path d="M53.097 192.742a3.23 3.23 0 00-3.227 3.233 3.233 3.233 0 003.227 3.234c1.78 0 3.227-1.45 3.227-3.234a3.226 3.226 0 00-3.227-3.233z" fill="#BABCBE"/><path d="M28.025 229.705a4.526 4.526 0 00-4.524 4.533 4.534 4.534 0 004.524 4.534 4.53 4.53 0 004.523-4.534 4.53 4.53 0 00-4.523-4.533z" fill="#A5A7AA"/><path d="M110.065 231.329a2.311 2.311 0 00-2.309 2.317 2.312 2.312 0 002.309 2.317 2.312 2.312 0 002.309-2.317 2.311 2.311 0 00-2.309-2.317z" fill="#BABCBE"/><path d="M148.234 226.356a2.616 2.616 0 00-2.613 2.616 2.617 2.617 0 002.613 2.621 2.617 2.617 0 002.614-2.621 2.616 2.616 0 00-2.614-2.616z" fill="#E5E5E6"/><path d="M145.701 192.433c.005-.05.01-.1.01-.145a1.427 1.427 0 00-2.848-.149c0 .05-.005.099-.005.144 0 .787.638 1.435 1.426 1.435a1.428 1.428 0 001.417-1.285z" fill="#BABCBE"/><path d="M224.115 192.702c-.978 0-1.766.797-1.766 1.768 0 .982.788 1.774 1.766 1.774.977 0 1.765-.792 1.765-1.774 0-.971-.788-1.768-1.765-1.768z" fill="#CED1D2"/><path d="M187.391 227.353c-2.204 0-3.995 1.804-3.995 4.011a4.003 4.003 0 003.995 4.01c2.21 0 4-1.793 4-4.01a4.01 4.01 0 00-4-4.011z" fill="#E5E5E6"/><path d="M250.454 206.677a2.076 2.076 0 000 4.15 2.076 2.076 0 000-4.15z" fill="#BABCBE"/><path d="M270.968 169.36a2.137 2.137 0 00-2.135 2.133 2.132 2.132 0 104.264 0 2.132 2.132 0 00-2.129-2.133zm21.356 42.269a3.795 3.795 0 00-3.79 3.797c0 2.097 1.7 3.796 3.79 3.796a3.792 3.792 0 003.791-3.796 3.799 3.799 0 00-3.791-3.797z" fill="#A5A7AA"/><path d="M334.354 221.733c-1.117 0-2.02.902-2.02 2.018a2.017 2.017 0 104.035 0 2.016 2.016 0 00-2.015-2.018z" fill="#CED1D2"/><path d="M324.419 185.971a2.659 2.659 0 00-2.653 2.66 2.656 2.656 0 002.653 2.661 2.656 2.656 0 002.653-2.661 2.652 2.652 0 00-2.653-2.66z" fill="#BABCBE"/><path d="M348.399 178.094a1.87 1.87 0 000 3.737 1.87 1.87 0 000-3.737zm78.17 19.246a1.466 1.466 0 10-2.933 0c0 .813.653 1.47 1.466 1.47a1.463 1.463 0 001.467-1.47z" fill="#CED1D2"/><path d="M426.678 223.502a3.012 3.012 0 00-3.012 3.014 3.013 3.013 0 106.025 0 3.013 3.013 0 00-3.013-3.014z" fill="#EFF0F0"/><path d="M489.636 181.92a3.065 3.065 0 00-3.063 3.059 3.063 3.063 0 003.058 3.065 3.06 3.06 0 003.057-3.065 3.056 3.056 0 00-3.052-3.059zM463.8 207.305a2.194 2.194 0 00-2.194 2.197c0 1.215.982 2.197 2.194 2.197s2.19-.987 2.19-2.197a2.197 2.197 0 00-2.19-2.197z" fill="#A5A7AA"/><path d="M510.584 200.698a2.631 2.631 0 000 5.261 2.63 2.63 0 000-5.261z" fill="#CED1D2"/><path d="M538.563 218.724a2.904 2.904 0 00-2.902 2.904c0 1.61 1.301 2.91 2.902 2.91 1.601 0 2.898-1.3 2.898-2.91a2.904 2.904 0 00-2.898-2.904zm-2.922 15.509a4.511 4.511 0 00-4.509 4.519 4.51 4.51 0 004.509 4.514 4.518 4.518 0 000-9.033z" fill="#BABCBE"/><path d="M599.666 178.089a3.578 3.578 0 000 4.394v-4.394zm-122.584 94.478a1.2 1.2 0 001.167-.359 1.2 1.2 0 00-.598-1.968 1.198 1.198 0 00-1.446.882 1.19 1.19 0 00.877 1.445zm-78.274-14.06c2.199.543 4.414-.812 4.952-3.02a4.105 4.105 0 00-3.012-4.967 4.1 4.1 0 00-4.958 3.014 4.12 4.12 0 003.018 4.973z" fill="#CED1D2"/><path d="M316.08 249.579c.109.025.219.035.329.025a1.09 1.09 0 00.987-.822 1.088 1.088 0 00-.798-1.316c-.109-.025-.214-.035-.324-.025a1.074 1.074 0 00-.987.822c-.14.583.214 1.171.793 1.316z" fill="#E5E5E6"/><path d="M267.102 240.999c.274.175.579.314.918.389a3.086 3.086 0 003.735-2.277 3.108 3.108 0 00-1.162-3.228 3.089 3.089 0 00-4.853 1.753 3.114 3.114 0 001.362 3.363zm-59.855-17.228v.005a1.601 1.601 0 001.93-1.181 1.594 1.594 0 00-1.172-1.928 1.598 1.598 0 00-.758 3.104zm-89.741-22.395a2.426 2.426 0 00-1.227.01 2.504 2.504 0 00-1.79 1.828 2.495 2.495 0 003.057 3.005 2.479 2.479 0 001.786-1.824 2.482 2.482 0 00-1.826-3.019zM48.07 178.139a2.121 2.121 0 001.56 2.571c.5.119.998.06 1.427-.15a2.112 2.112 0 001.142-1.415 2.123 2.123 0 00-2.987-2.416 2.1 2.1 0 00-1.142 1.41zM2.125 155.754a1.594 1.594 0 00-1.197-1.296 1.542 1.542 0 00-.848.03v3.049c.03.01.06.025.094.03a1.59 1.59 0 001.926-1.175c.05-.22.055-.434.025-.638zm554.937 110.714a1.891 1.891 0 00-2.294 1.4 1.898 1.898 0 002.15 2.327 1.898 1.898 0 001.541-1.43 1.906 1.906 0 00-1.397-2.297z" fill="#CED1D2"/><path d="M536.314 253.515a2.186 2.186 0 00-1.601-2.646 2.184 2.184 0 00-2.638 1.609 2.184 2.184 0 001.606 2.641 2.185 2.185 0 002.633-1.604z" fill="#E5E5E6"/><path d="M494.444 254.237a1.78 1.78 0 00-2.155 1.315c-.09.354-.06.718.06 1.042.2.538.653.971 1.257 1.116a1.785 1.785 0 002.155-1.311 1.743 1.743 0 00-.06-1.046 1.82 1.82 0 00-1.257-1.116z" fill="#A5A7AA"/><path d="M475.88 232.634a2.234 2.234 0 001.641 2.696 2.226 2.226 0 002.688-1.64 2.235 2.235 0 00-1.636-2.695 2.233 2.233 0 00-2.693 1.639z" fill="#CED1D2"/><path d="M439.067 248.443a1.836 1.836 0 002.724-1.141 1.834 1.834 0 00-1.347-2.212 1.822 1.822 0 00-2.21 1.345 1.838 1.838 0 00.833 2.008z" fill="#EFF0F0"/><path d="M384.095 207.763a1.184 1.184 0 001.431-.872 1.193 1.193 0 00-.868-1.439 1.194 1.194 0 00-1.436.871 1.18 1.18 0 00.873 1.44zm-32.1-11.14a1.981 1.981 0 00.933-3.851 1.98 1.98 0 00-2.39 1.454 1.995 1.995 0 001.457 2.397z" fill="#E5E5E6"/><path d="M290.474 202.716a3.108 3.108 0 003.75-2.287 3.106 3.106 0 00-2.279-3.757 3.099 3.099 0 00-3.751 2.287 3.107 3.107 0 002.28 3.757z" fill="#BABCBE"/><path d="M295.79 181.297a3.188 3.188 0 00-3.855 2.352 3.2 3.2 0 002.344 3.866 3.193 3.193 0 003.855-2.351 3.203 3.203 0 00-2.344-3.867zm-47.865 8.5a1.91 1.91 0 002.674-1.275 1.918 1.918 0 00-1.093-2.207 1.643 1.643 0 00-.314-.11 1.91 1.91 0 00-2.309 1.41 1.92 1.92 0 001.042 2.182z" fill="#CED1D2"/><path d="M224.01 176.813a1.557 1.557 0 00-.738 3.025 1.557 1.557 0 001.875-1.146 1.55 1.55 0 00-1.137-1.879z" fill="#BABCBE"/><path d="M172.748 162.734c.319.433.783.757 1.347.892a2.385 2.385 0 002.888-1.754 2.393 2.393 0 00-.409-2.003 2.389 2.389 0 00-4.235.867 2.366 2.366 0 00.409 1.998zm-43.022-18.429a1.794 1.794 0 00-1.317-2.168 1.786 1.786 0 00-2.165 1.321 1.79 1.79 0 103.482.847z" fill="#CED1D2"/><path d="M108.873 145.455a1.726 1.726 0 001.272 2.093 1.73 1.73 0 00.818-3.363 1.725 1.725 0 00-2.09 1.27z" fill="#BABCBE"/><path d="M80.863 140.568a1.386 1.386 0 001.665-1.017 1.385 1.385 0 00-1.012-1.669 1.375 1.375 0 00-1.66 1.017 1.388 1.388 0 001.007 1.669z" fill="#CED1D2"/><path d="M40.125 134.375a2.673 2.673 0 00-1.661-1.215 2.682 2.682 0 00-3.247 1.978 2.7 2.7 0 001.975 3.258 2.694 2.694 0 002.933-4.021z" fill="#E5E5E6"/><path d="M.08 131.7v5.56a2.908 2.908 0 001.95-2.088A2.925 2.925 0 00.08 131.7z" fill="#CED1D2"/><path d="M590.743 224.134a2.312 2.312 0 001.097-4.493 2.31 2.31 0 00-2.793 1.698 2.31 2.31 0 001.696 2.795z" fill="#BABCBE"/><path d="M544.808 213.049a3.233 3.233 0 00-3.91 2.382 3.24 3.24 0 002.379 3.916 3.238 3.238 0 003.91-2.382 3.238 3.238 0 00-2.379-3.916z" fill="#E5E5E6"/><path d="M522.818 230.352a1.467 1.467 0 00.693-2.849 1.46 1.46 0 00-1.765 1.076 1.462 1.462 0 001.072 1.773z" fill="#BABCBE"/><path d="M470.573 207.678c.11.055.235.095.355.13a1.858 1.858 0 002.239-1.365 1.869 1.869 0 00-1.013-2.123 1.468 1.468 0 00-.349-.119 1.848 1.848 0 00-2.239 1.365 1.857 1.857 0 001.007 2.112zm-11.481-8.43a1.485 1.485 0 00-1.795 1.091 1.496 1.496 0 001.092 1.799 1.483 1.483 0 001.79-1.096 1.472 1.472 0 00-1.087-1.794z" fill="#E5E5E6"/><path d="M419.86 195.691a3.26 3.26 0 003.931-2.391c.109-.439.114-.872.049-1.291a3.244 3.244 0 00-2.433-2.645 3.251 3.251 0 00-3.931 2.391 3.343 3.343 0 00-.054 1.291 3.269 3.269 0 002.438 2.645z" fill="#CED1D2"/><path d="M378.464 200.698a2.609 2.609 0 003.157-1.918 2.618 2.618 0 00-1.915-3.159 2.606 2.606 0 00-3.152 1.919 2.603 2.603 0 001.91 3.158z" fill="#EFF0F0"/><path d="M344.389 161.997a1.252 1.252 0 00-.663.004c-.469.12-.848.489-.973.992a1.362 1.362 0 001.661 1.639c.464-.129.848-.493.972-.996a1.354 1.354 0 00-.997-1.639z" fill="#BABCBE"/><path d="M316.224 154.005a1.193 1.193 0 001.437-.872 1.193 1.193 0 00-.873-1.44 1.186 1.186 0 00-1.436.872c-.16.643.234 1.285.872 1.44z" fill="#E5E5E6"/><path d="M280.434 147.757a2.132 2.132 0 00-2.574 1.57 2.137 2.137 0 001.566 2.581 2.13 2.13 0 002.574-1.57 2.14 2.14 0 00-1.566-2.581z" fill="#BABCBE"/><path d="M248.194 144.449a2.379 2.379 0 001.746 2.875 2.369 2.369 0 002.868-1.744 2.378 2.378 0 00-1.746-2.874 2.37 2.37 0 00-2.868 1.743z" fill="#EFF0F0"/><path d="M225.022 160.955a1.096 1.096 0 001.317-.802 1.1 1.1 0 00-.798-1.32 1.108 1.108 0 00-.993.254 1.09 1.09 0 00-.324.553 1.09 1.09 0 00.798 1.315z" fill="#CED1D2"/><path d="M190.199 123.096a2.448 2.448 0 002.958-1.804 2.386 2.386 0 00-.135-1.544c.035-.01.075-.015.105-.025a2.442 2.442 0 001.756-1.794 2.45 2.45 0 00-1.796-2.964 2.45 2.45 0 00-2.828 3.353 2.445 2.445 0 00-1.86 1.813 2.464 2.464 0 001.8 2.965z" fill="#BABCBE"/><path d="M143.307 107.486a.863.863 0 00.488 1.35.864.864 0 001.038-.632.86.86 0 00-1.526-.718z" fill="#A5A7AA"/><path d="M125.781 127.544a2.422 2.422 0 002.937-1.788 2.434 2.434 0 00-1.79-2.945c-1.302-.324-2.619.484-2.943 1.789-.309 1.305.494 2.63 1.796 2.944zm-36.444 3.578a2.62 2.62 0 003.162-1.928v-.005a2.627 2.627 0 00-1.92-3.169 2.612 2.612 0 00-3.162 1.923v.005a2.626 2.626 0 001.92 3.174z" fill="#E5E5E6"/><path d="M48.868 86.795a1.719 1.719 0 001.262 2.078 1.715 1.715 0 002.074-1.266 1.719 1.719 0 00-1.261-2.077 1.711 1.711 0 00-2.075 1.265z" fill="#BABCBE"/><path d="M24.374 94.852c-.115-.055-.24-.1-.374-.13a1.95 1.95 0 00-2.364 1.44 1.954 1.954 0 001.122 2.257 1.959 1.959 0 001.616-3.567z" fill="#CED1D2"/><path d="M578.603 179.444a1.858 1.858 0 001.362 2.242 1.845 1.845 0 002.234-1.36 1.851 1.851 0 10-3.596-.882zm-28.957 9.476c2.07.509 4.154-.767 4.663-2.844a3.874 3.874 0 00-2.833-4.674 3.863 3.863 0 00-4.663 2.84 3.876 3.876 0 002.833 4.678z" fill="#E5E5E6"/><path d="M512.404 166.645c.369.09.748.04 1.067-.12a1.57 1.57 0 00.853-1.056 1.593 1.593 0 10-3.092-.757 1.6 1.6 0 001.172 1.933z" fill="#A5A7AA"/><path d="M471.965 153.875a2.091 2.091 0 001.531 2.526 2.08 2.08 0 002.514-1.534 2.083 2.083 0 10-4.045-.992zm26.728-26.948a1.283 1.283 0 00.604-2.491 1.28 1.28 0 00-1.547.941 1.279 1.279 0 00.943 1.55z" fill="#E5E5E6"/><path d="M445.94 163.292c.289.264.648.463 1.057.563a2.44 2.44 0 002.21-4.185 2.431 2.431 0 00-4 1.23c-.22.902.09 1.804.733 2.392z" fill="#BABCBE"/><path d="M414.06 143.478a1.839 1.839 0 002.229-1.36 1.849 1.849 0 00-1.356-2.237 1.848 1.848 0 00-2.23 1.36 1.858 1.858 0 001.357 2.237z" fill="#E5E5E6"/><path d="M373.75 141.445a2.12 2.12 0 00-2.568 1.559v.005a2.126 2.126 0 104.13 1.007 2.126 2.126 0 00-1.562-2.571z" fill="#EFF0F0"/><path d="M360.474 135.929a1.907 1.907 0 002.309-1.405 1.905 1.905 0 00-1.406-2.311 1.91 1.91 0 00-2.31 1.405 1.92 1.92 0 001.407 2.311z" fill="#CED1D2"/><path d="M307.99 130.803a1.018 1.018 0 001.237-.757c.14-.553-.2-1.112-.753-1.246a1.034 1.034 0 00-1.247.757 1.046 1.046 0 00.763 1.246z" fill="#BABCBE"/><path d="M281.386 130.554a1.586 1.586 0 00-1.157-1.914 1.581 1.581 0 00-1.91 1.161 1.58 1.58 0 001.162 1.913 1.567 1.567 0 001.905-1.16zm-15.082-4.738a2.542 2.542 0 00-2.299 1.928 2.532 2.532 0 004.918 1.201 2.536 2.536 0 00-1.856-3.064 2.644 2.644 0 00-.763-.065z" fill="#CED1D2"/><path d="M141.975 89.685a2.643 2.643 0 003.197-1.948 2.65 2.65 0 00-1.945-3.204 2.642 2.642 0 00-3.197 1.948 2.645 2.645 0 001.945 3.204z" fill="#E5E5E6"/><path d="M120.848 84.543a1.365 1.365 0 001.426-.518 1.377 1.377 0 00-.773-2.157 1.369 1.369 0 00-1.247.323 1.33 1.33 0 00-.409.693 1.37 1.37 0 001.003 1.659zm-41.471 4.399a2.86 2.86 0 003.456-2.102 2.857 2.857 0 10-5.551-1.355 2.856 2.856 0 002.095 3.457zm-6.464-28.578a2.202 2.202 0 002.658-1.62 2.198 2.198 0 10-4.27-1.041 2.2 2.2 0 001.612 2.661z" fill="#BABCBE"/><path d="M27.227 78.405a2.002 2.002 0 002.414-1.47 2.001 2.001 0 00-1.466-2.416 1.991 1.991 0 00-2.41 1.47 1.995 1.995 0 001.462 2.416z" fill="#CED1D2"/><path d="M576.424 165.499a3.053 3.053 0 003.686-2.242 3.064 3.064 0 00-2.24-3.697 3.05 3.05 0 00-3.685 2.247 3.05 3.05 0 002.239 3.692zm23.242-45.004a2.277 2.277 0 00-2.175 1.733 2.286 2.286 0 001.676 2.761c.165.039.334.059.499.059v-4.553z" fill="#EFF0F0"/><path d="M545.511 160.198a2.4 2.4 0 00-2.898 1.764 2.408 2.408 0 001.761 2.904 2.402 2.402 0 001.137-4.668z" fill="#A5A7AA"/><path d="M584.578 142.431a2.752 2.752 0 003.317-2.023 2.755 2.755 0 00-2.02-3.328 2.75 2.75 0 00-3.317 2.023 2.767 2.767 0 002.02 3.328zm-58.468.593a2.817 2.817 0 003.406-2.072 2.834 2.834 0 00-2.07-3.413 2.828 2.828 0 00-3.406 2.078c-.364 1.509.558 3.044 2.07 3.407z" fill="#BABCBE"/><path d="M555.017 116.868a3.948 3.948 0 004.773-2.91 3.962 3.962 0 00-2.902-4.783 3.951 3.951 0 00-4.773 2.91 3.96 3.96 0 002.902 4.783z" fill="#A5A7AA"/><path d="M470.22 150.348a2.496 2.496 0 003.017-1.838 2.503 2.503 0 00-1.835-3.025 2.495 2.495 0 00-3.018 1.839 2.501 2.501 0 001.836 3.024z" fill="#E5E5E6"/><path d="M485.819 100.526a3.978 3.978 0 004.81-2.928 3.981 3.981 0 00-2.921-4.815 3.974 3.974 0 00-4.801 2.928 3.983 3.983 0 002.912 4.815z" fill="#56CCF2"/><path d="M452.329 94.776a2.281 2.281 0 002.758-1.684 2.282 2.282 0 10-4.434-1.081 2.288 2.288 0 001.676 2.765z" fill="#E5E5E6"/><path d="M447.481 124.087a1.247 1.247 0 00.878 1.634 1.248 1.248 0 001.471-.797c.015-.035.025-.08.035-.12a1.244 1.244 0 00-.917-1.509 1.235 1.235 0 00-1.467.792z" fill="#BABCBE"/><path d="M381.007 107.601a1.544 1.544 0 001.866-1.136 1.55 1.55 0 00-1.132-1.869 1.548 1.548 0 00-1.866 1.136 1.545 1.545 0 001.132 1.869z" fill="#CED1D2"/><path d="M419.721 84.13c.952.234 1.9-.35 2.134-1.3a1.767 1.767 0 00-1.297-2.138 1.77 1.77 0 00-.837 3.438zm-61.651 22.046a2.775 2.775 0 001.396 4.554 2.763 2.763 0 002.704-.832c.304-.329.528-.738.638-1.206a2.776 2.776 0 00-2.035-3.353 2.753 2.753 0 00-2.703.837z" fill="#E5E5E6"/><path d="M361.546 90.282a1.8 1.8 0 002.18-1.33 1.806 1.806 0 10-3.507-.857 1.808 1.808 0 001.327 2.188z" fill="#BABCBE"/><path d="M336.444 117.69a1.863 1.863 0 10.878-3.622 1.854 1.854 0 00-2.245 1.37 1.857 1.857 0 001.367 2.252zm-9.397-40.286a3.304 3.304 0 003.995-2.437 3.306 3.306 0 10-6.424-1.57 3.318 3.318 0 002.429 4.007z" fill="#A5A7AA"/><path d="M293.471 60.115a1.765 1.765 0 00.833-3.428 1.76 1.76 0 00-2.13 1.3 1.767 1.767 0 001.297 2.128z" fill="#CED1D2"/><path d="M294.519 92.515a2.32 2.32 0 002.803-1.704v-.005a2.328 2.328 0 00-1.706-2.81 2.312 2.312 0 00-2.798 1.709 2.316 2.316 0 001.701 2.81z" fill="#BABCBE"/><path d="M272.549 94.228a1.624 1.624 0 001.965-1.2 1.622 1.622 0 00-1.197-1.968 1.624 1.624 0 00-1.965 1.195 1.636 1.636 0 001.197 1.973z" fill="#CED1D2"/><path d="M274.773 38.568c2.254.553 4.529-.838 5.082-3.1a4.213 4.213 0 00-3.092-5.091 4.205 4.205 0 00-5.082 3.099 4.217 4.217 0 003.092 5.092z" fill="#E5E5E6"/><path d="M210.199 61.69a1.284 1.284 0 101.551-.942 1.28 1.28 0 00-1.551.942z" fill="#CED1D2"/><path d="M215.506 39.474a2.627 2.627 0 003.177-1.933 2.639 2.639 0 00-1.93-3.183 2.63 2.63 0 00-3.177 1.933 2.633 2.633 0 001.93 3.183z" fill="#EFF0F0"/><path d="M153.511 61.7c.359.09.718.1 1.062.044a2.676 2.676 0 00.205-5.241 2.686 2.686 0 00-3.232 1.968 2.678 2.678 0 001.965 3.229zm27.162-16.177a1.91 1.91 0 002.314-1.41 1.914 1.914 0 10-3.72-.912 1.915 1.915 0 001.406 2.322z" fill="#A5A7AA"/><path d="M139.616 41.427a2.292 2.292 0 002.773-1.689 2.302 2.302 0 00-1.686-2.78 2.292 2.292 0 00-2.773 1.69 2.3 2.3 0 001.686 2.78z" fill="#CED1D2"/><path d="M119.596 20.332a2.535 2.535 0 003.062-1.863 2.543 2.543 0 00-1.86-3.069 2.535 2.535 0 00-3.062 1.863 2.544 2.544 0 001.86 3.07z" fill="#BABCBE"/><path d="M109.017 55.183a3.437 3.437 0 004.15-2.526 3.433 3.433 0 00-2.519-4.15 3.434 3.434 0 00-4.144 2.531 3.43 3.43 0 002.513 4.145z" fill="#CED1D2"/><path d="M125.277 7.777a3.935 3.935 0 004.758-2.894c.513-2.118-.783-4.255-2.893-4.768a3.938 3.938 0 00-4.758 2.9 3.945 3.945 0 002.893 4.762z" fill="#BABCBE"/><path d="M54.369 38.936a3.146 3.146 0 002.304 3.802 3.141 3.141 0 003.79-2.312 3.147 3.147 0 00-2.304-3.797 3.137 3.137 0 00-3.79 2.307z" fill="#CED1D2"/><path d="M61.805 13.223a2.85 2.85 0 003.447-2.098 2.859 2.859 0 00-2.095-3.453A2.85 2.85 0 0059.71 9.77a2.855 2.855 0 002.094 3.453zM.08 32.878v4.962a3.11 3.11 0 001.157-1.748A3.102 3.102 0 00.08 32.878zm15.042 6.526a2.407 2.407 0 002.893-2.959 2.403 2.403 0 00-4.663.045 2.414 2.414 0 001.77 2.914z" fill="#EFF0F0"/><path d="M298.977 87.891c2.21 0 4-1.793 4-4.005a4.002 4.002 0 00-4-4.006 3.999 3.999 0 00-3.995 4.006 4.002 4.002 0 003.995 4.005z" fill="#00CCF3"/><path d="M157.052 101.493c-4.129 0-7.476 3.358-7.476 7.493 0 1.036.21 2.023.589 2.919a7.47 7.47 0 006.892 4.584c4.13 0 7.477-3.358 7.477-7.498 0-1.036-.21-2.018-.589-2.915a7.485 7.485 0 00-6.893-4.583z" fill="#0074A5"/><path d="M113.302 168.249c-2.21 0-4 1.794-4 4.011s1.79 4.01 4 4.01a4 4 0 003.995-4.01 4.003 4.003 0 00-3.995-4.011z" fill="#00CCF3"/><path d="M254.757 192.568a7.394 7.394 0 00.893-3.558c0-4.134-3.339-7.478-7.458-7.478a7.454 7.454 0 00-6.556 3.911 7.426 7.426 0 00-.893 3.567c0 4.133 3.338 7.468 7.449 7.468a7.46 7.46 0 006.565-3.91z" fill="#0B73A3"/><path d="M360.987 240.621a4.825 4.825 0 00-4.818 4.827 4.822 4.822 0 004.818 4.828 4.821 4.821 0 004.818-4.828 4.824 4.824 0 00-4.818-4.827z" fill="#00CCF3"/><path d="M540.898 177.003a4.007 4.007 0 00-4.005 4.011 3.997 3.997 0 006.823 2.829 4.004 4.004 0 001.167-2.829 3.989 3.989 0 00-3.985-4.011z" fill="#E0E0E0"/><path d="M378.264 132.138a3.996 3.996 0 00-3.99 3.996 3.994 3.994 0 003.99 4.001 3.994 3.994 0 003.991-4.001 3.996 3.996 0 00-3.991-3.996zm34.888 63.19a3.992 3.992 0 00-3.99 3.995c0 1.106.444 2.108 1.172 2.83a3.978 3.978 0 002.818 1.171 3.993 3.993 0 003.99-3.996c0-.827-.249-1.599-.683-2.237a3.97 3.97 0 00-3.307-1.763z" fill="#00CCF3"/><path d="M220.219 70.09c4.02.981 8.07-1.49 9.053-5.516a7.534 7.534 0 00-.873-5.684 7.492 7.492 0 00-4.633-3.398c-4.02-.982-8.07 1.49-9.053 5.515a7.505 7.505 0 00.25 4.384 7.509 7.509 0 005.256 4.699zm16.973 59.139a7.487 7.487 0 009.052-5.516c.978-4.03-1.481-8.091-5.501-9.072-4.025-.982-8.075 1.489-9.057 5.52-.983 4.026 1.486 8.091 5.506 9.068z" fill="#0074A5"/></g><defs><clipPath id="clip0"><path fill="#fff" d="M0 0h600v280H0z"/></clipPath></defs></svg>